<?xml version="1.0" encoding="UTF-8"?>
<svg version="1.1" xmlns="http://www.w3.org/2000/svg" width="286" height="34">
<path d="M0 0 C2.33334655 0.00052885 4.66668817 -0.00063796 7.00003433 -0.00194168 C11.15359761 -0.003042 15.30703269 0.00666838 19.4605751 0.02006149 C21.22759277 0.02185913 21.22759277 0.02185913 23.03030777 0.02369308 C24.07262558 0.02998734 25.11494339 0.03628159 26.18884659 0.04276657 C27.53256584 0.04848427 27.53256584 0.04848427 28.90343094 0.05431747 C30.90198135 0.18803024 30.90198135 0.18803024 31.90198135 1.18803024 C32.00146587 2.81319425 32.03278408 4.44263784 32.03479385 6.07084274 C32.03608292 7.07373337 32.03737198 8.07662399 32.0387001 9.10990524 C32.03483292 10.16693649 32.03096573 11.22396774 32.02698135 12.31303024 C32.03084854 13.34685837 32.03471573 14.38068649 32.0387001 15.44584274 C32.02004689 30.06996471 32.02004689 30.06996471 29.90198135 32.18803024 C28.24629761 32.28644355 26.58638982 32.31435063 24.92778397 32.31501389 C23.8458322 32.31783686 22.76388044 32.32065983 21.64914227 32.32356834 C20.44762555 32.32154097 19.24610884 32.31951359 18.00818253 32.31742477 C16.74570474 32.31914877 15.48322695 32.32087276 14.18249226 32.322649 C10.67649705 32.32718372 7.17053032 32.32530107 3.66453457 32.32222939 C0.68454444 32.32036769 -2.29543925 32.32205777 -5.27542913 32.32379222 C-14.14021614 32.32891867 -23.00498193 32.32437566 -31.86976624 32.31700516 C-36.05324339 32.31353807 -40.2367201 32.31125495 -44.42019826 32.30942643 C-88.50166056 32.29013549 -132.58254978 32.19691462 -176.6627121 31.84015274 C-180.16616888 31.81298643 -183.66963401 31.78939636 -187.17312241 31.76670456 C-192.60348165 31.73083314 -198.03365481 31.68484596 -203.46385574 31.63009262 C-205.42925613 31.61163712 -207.39468991 31.59641363 -209.36014175 31.58465195 C-212.00351025 31.56803809 -214.6464532 31.53921815 -217.28966904 31.5068779 C-218.06175107 31.50471834 -218.8338331 31.50255878 -219.62931156 31.50033379 C-224.8694437 31.41660519 -224.8694437 31.41660519 -227.09801865 29.18803024 C-227.52453232 26.68192673 -227.52453232 26.68192673 -227.7659874 23.55912399 C-227.85428818 22.44215134 -227.94258896 21.32517868 -228.03356552 20.17435837 C-228.11671005 19.00324509 -228.19985458 17.83213181 -228.28551865 16.62553024 C-228.38026474 15.45054977 -228.47501083 14.27556931 -228.57262802 13.06498337 C-229.05836967 6.64651929 -229.05836967 6.64651929 -229.09801865 4.18803024 C-227.24462187 2.33463347 -224.18857531 2.96953476 -221.7047081 2.90897751 C-221.01071348 2.89109869 -220.31671886 2.87321987 -219.60169411 2.85479927 C-217.20082782 2.7950239 -214.79986152 2.74323714 -212.3987999 2.69193649 C-210.63303658 2.65117193 -208.86727429 2.61036319 -207.10151291 2.56951523 C-178.29765101 1.92484071 -149.48717728 1.55690385 -120.67905664 1.15868807 C-118.27446138 1.12537707 -115.86986958 1.09182515 -113.46527863 1.05820465 C-36.97426978 -0.01029087 -36.97426978 -0.01029087 0 0 Z " fill="#010101" transform="translate(239.09801864624023,0.8119697570800781)"/>
<path d="M0 0 C2.33334655 0.00052885 4.66668817 -0.00063796 7.00003433 -0.00194168 C11.15359761 -0.003042 15.30703269 0.00666838 19.4605751 0.02006149 C21.22759277 0.02185913 21.22759277 0.02185913 23.03030777 0.02369308 C24.07262558 0.02998734 25.11494339 0.03628159 26.18884659 0.04276657 C27.53256584 0.04848427 27.53256584 0.04848427 28.90343094 0.05431747 C30.90198135 0.18803024 30.90198135 0.18803024 31.90198135 1.18803024 C32.00146587 2.81319425 32.03278408 4.44263784 32.03479385 6.07084274 C32.03608292 7.07373337 32.03737198 8.07662399 32.0387001 9.10990524 C32.03483292 10.16693649 32.03096573 11.22396774 32.02698135 12.31303024 C32.03084854 13.34685837 32.03471573 14.38068649 32.0387001 15.44584274 C32.02004689 30.06996471 32.02004689 30.06996471 29.90198135 32.18803024 C28.24629761 32.28644355 26.58638982 32.31435063 24.92778397 32.31501389 C23.8458322 32.31783686 22.76388044 32.32065983 21.64914227 32.32356834 C20.44762555 32.32154097 19.24610884 32.31951359 18.00818253 32.31742477 C16.74570474 32.31914877 15.48322695 32.32087276 14.18249226 32.322649 C10.67649705 32.32718372 7.17053032 32.32530107 3.66453457 32.32222939 C0.68454444 32.32036769 -2.29543925 32.32205777 -5.27542913 32.32379222 C-14.14021614 32.32891867 -23.00498193 32.32437566 -31.86976624 32.31700516 C-36.05324339 32.31353807 -40.2367201 32.31125495 -44.42019826 32.30942643 C-88.50166056 32.29013549 -132.58254978 32.19691462 -176.6627121 31.84015274 C-180.16616888 31.81298643 -183.66963401 31.78939636 -187.17312241 31.76670456 C-192.60348165 31.73083314 -198.03365481 31.68484596 -203.46385574 31.63009262 C-205.42925613 31.61163712 -207.39468991 31.59641363 -209.36014175 31.58465195 C-212.00351025 31.56803809 -214.6464532 31.53921815 -217.28966904 31.5068779 C-218.06175107 31.50471834 -218.8338331 31.50255878 -219.62931156 31.50033379 C-224.8694437 31.41660519 -224.8694437 31.41660519 -227.09801865 29.18803024 C-227.52453232 26.68192673 -227.52453232 26.68192673 -227.7659874 23.55912399 C-227.85428818 22.44215134 -227.94258896 21.32517868 -228.03356552 20.17435837 C-228.11671005 19.00324509 -228.19985458 17.83213181 -228.28551865 16.62553024 C-228.38026474 15.45054977 -228.47501083 14.27556931 -228.57262802 13.06498337 C-229.05836967 6.64651929 -229.05836967 6.64651929 -229.09801865 4.18803024 C-227.24462187 2.33463347 -224.18857531 2.96953476 -221.7047081 2.90897751 C-221.01071348 2.89109869 -220.31671886 2.87321987 -219.60169411 2.85479927 C-217.20082782 2.7950239 -214.79986152 2.74323714 -212.3987999 2.69193649 C-210.63303658 2.65117193 -208.86727429 2.61036319 -207.10151291 2.56951523 C-178.29765101 1.92484071 -149.48717728 1.55690385 -120.67905664 1.15868807 C-118.27446138 1.12537707 -115.86986958 1.09182515 -113.46527863 1.05820465 C-36.97426978 -0.01029087 -36.97426978 -0.01029087 0 0 Z M-100.49669838 6.02225268 C-106.0458982 6.10355022 -111.59513551 6.18173899 -117.14440536 6.2580986 C-152.13295317 6.73964679 -187.11790362 7.2560647 -222.09801865 8.18803024 C-222.11864365 9.48740524 -222.13926865 10.78678024 -222.16051865 12.12553024 C-222.17212021 12.85642868 -222.18372177 13.58732712 -222.1956749 14.34037399 C-222.05931697 18.31657107 -221.57542417 22.24015031 -221.09801865 26.18803024 C-197.45719129 26.32037831 -173.81635406 26.45082377 -150.17550468 26.57918167 C-139.19133776 26.63886155 -128.20717454 26.69910505 -117.22301865 26.76078415 C-104.51729889 26.8320514 -91.81157167 26.90181082 -79.10583115 26.96928024 C-78.07436242 26.9747575 -77.0428937 26.98023476 -75.98016834 26.98587799 C-42.01902372 27.16518226 -8.05964055 27.25265408 25.90198135 27.18803024 C25.57198135 19.92803024 25.24198135 12.66803024 24.90198135 5.18803024 C-16.90667513 5.05453524 -58.69308056 5.40804617 -100.49669838 6.02225268 Z " fill="#020202" transform="translate(239.09801864624023,0.8119697570800781)"/>
<path d="M0 0 C0.02886751 4.14581887 0.04675327 8.29161216 0.0625 12.4375 C0.07087891 13.62150391 0.07925781 14.80550781 0.08789062 16.02539062 C0.09111328 17.15009766 0.09433594 18.27480469 0.09765625 19.43359375 C0.10289307 20.47572021 0.10812988 21.51784668 0.11352539 22.59155273 C0 25 0 25 -1 26 C-3.33963185 26.09656528 -5.64915436 26.12545605 -7.98925781 26.11303711 C-8.75033089 26.11284388 -9.51140396 26.11265064 -10.29553986 26.11245155 C-12.93143647 26.11010259 -15.56724765 26.10003071 -18.203125 26.08984375 C-20.14097035 26.08576281 -22.07881627 26.08194273 -24.0166626 26.07835388 C-31.01115535 26.06224463 -38.00556374 26.031903 -45 26 C-46.01180014 25.99545917 -46.01180014 25.99545917 -47.04404068 25.99082661 C-67.94119056 25.89697405 -88.83815224 25.77684853 -109.73508883 25.64417708 C-110.59240209 25.63873487 -111.44971536 25.63329267 -112.33300781 25.62768555 C-113.19159126 25.62223233 -114.0501747 25.61677911 -114.93477583 25.61116064 C-121.00500826 25.57285508 -127.07525235 25.53713208 -133.14550781 25.50268555 C-171.77125214 25.28291666 -210.38495987 25.01123634 -249 24 C-250.44070476 18.82707582 -251.23774092 14.41156402 -251.125 9 C-251.10695312 7.865625 -251.08890625 6.73125 -251.0703125 5.5625 C-251.03550781 4.2940625 -251.03550781 4.2940625 -251 3 C-227.65947758 2.59210615 -204.31894462 2.18483226 -180.97827148 1.78564453 C-180.31334116 1.77427239 -179.64841083 1.76290026 -178.9633311 1.75118351 C-171.62893503 1.62577716 -164.29453371 1.50068087 -156.96012878 1.37579346 C-140.55004989 1.09622116 -140.55004989 1.09622116 -124.14013672 0.80712891 C-82.75592733 0.06602097 -41.38961991 -0.12803068 0 0 Z M-127.39867973 2.83422244 C-132.94787955 2.91551998 -138.49711686 2.99370875 -144.04638672 3.07006836 C-179.03493452 3.55161654 -214.01988498 4.06803446 -249 5 C-249.020625 6.299375 -249.04125 7.59875 -249.0625 8.9375 C-249.07410156 9.66839844 -249.08570313 10.39929688 -249.09765625 11.15234375 C-248.96129833 15.12854083 -248.47740552 19.05212007 -248 23 C-224.35917264 23.13234807 -200.71833541 23.26279353 -177.07748604 23.39115143 C-166.09331912 23.45083131 -155.10915589 23.51107481 -144.125 23.57275391 C-131.41928024 23.64402116 -118.71355302 23.71378057 -106.0078125 23.78125 C-104.97634377 23.78672726 -103.94487505 23.79220451 -102.8821497 23.79784775 C-68.92100508 23.97715201 -34.9616219 24.06462384 -1 24 C-1.33 16.74 -1.66 9.48 -2 2 C-43.80865649 1.866505 -85.59506191 2.22001592 -127.39867973 2.83422244 Z " fill="#B0B0B0" transform="translate(266,4)"/>
<path d="M0 0 C0 6.93 0 13.86 0 21 C-0.33 21 -0.66 21 -1 21 C-1 14.4 -1 7.8 -1 1 C-2.56733887 1.03029297 -4.13467773 1.06058594 -5.74951172 1.09179688 C-91.29095795 2.7263599 -91.29095795 2.7263599 -134 1 C-134 0.67 -134 0.34 -134 0 C-40.92486313 -1.56116644 -40.92486313 -1.56116644 0 0 Z " fill="#8C8C8C" transform="translate(265,5)"/>
</svg>
