<?xml version="1.0" encoding="UTF-8"?>
<svg version="1.1" xmlns="http://www.w3.org/2000/svg" width="294" height="24">
<path d="M0 0 C5.67747269 -0.00537158 11.35492123 -0.01593886 17.03238183 -0.02863538 C23.96039144 -0.04394833 30.88836208 -0.05194632 37.81638926 -0.05027741 C41.36207459 -0.04953641 44.90768551 -0.05187477 48.45335656 -0.06251562 C52.29679808 -0.07384671 56.14012851 -0.06956919 59.98358423 -0.06354749 C61.1173169 -0.06916952 62.25104957 -0.07479154 63.41913778 -0.08058393 C64.95591098 -0.07428842 64.95591098 -0.07428842 66.5237301 -0.06786573 C67.41322823 -0.0684105 68.30272636 -0.06895526 69.21917897 -0.06951654 C71.34710962 0.17937243 71.34710962 0.17937243 73.34710962 2.17937243 C73.59976992 5.01739395 73.71739393 7.71553022 73.72210962 10.55437243 C73.7466018 11.32265368 73.77109399 12.09093493 73.79632837 12.88249743 C73.80019555 13.62757555 73.80406274 14.37265368 73.80804712 15.14030993 C73.81626489 15.8188402 73.82448266 16.49737048 73.83294946 17.19646227 C73.10498697 20.16757351 71.72035827 21.28292699 69.34710962 23.17937243 C66.33909875 23.66711962 66.33909875 23.66711962 62.70917016 23.64934313 C62.03306506 23.65150804 61.35695997 23.65367295 60.66036683 23.65590346 C58.35106481 23.65819191 56.04297138 23.63137684 53.73382837 23.60515368 C52.02087532 23.60055462 50.30791686 23.5977084 48.59495813 23.59642565 C43.7707002 23.58742239 38.94689799 23.55268749 34.12279779 23.51413882 C28.89049581 23.47641299 23.65812222 23.46111314 18.4257229 23.44280016 C9.19988504 23.40719485 -0.0258024 23.3576936 -9.25152653 23.29986548 C-23.59049818 23.21003359 -37.92948503 23.13960616 -52.26861304 23.07976305 C-53.26061851 23.07561817 -54.25262397 23.07147329 -55.27469021 23.06720281 C-57.30388851 23.05873028 -59.33308682 23.0502593 -61.36228514 23.04178983 C-62.37828848 23.03754808 -63.39429181 23.03330632 -64.44108313 23.02893603 C-65.46475366 23.02466705 -66.48842418 23.02039807 -67.54311502 23.01599973 C-84.29285531 22.94578304 -101.04255703 22.86693352 -117.79225314 22.786946 C-123.07712752 22.76171528 -128.36200296 22.73679543 -133.64688224 22.71260989 C-144.90249322 22.66099556 -156.15807581 22.60642214 -167.41362715 22.54299545 C-172.16632499 22.51626018 -176.91901724 22.49113841 -181.67174453 22.47021258 C-186.07351221 22.4507555 -190.47522922 22.42668326 -194.87695175 22.39886189 C-196.48696172 22.38949319 -198.09698262 22.38183037 -199.70700914 22.37595868 C-201.88853943 22.36773667 -204.06994576 22.35347742 -206.25143164 22.33759081 C-207.47143174 22.33113826 -208.69143183 22.32468571 -209.94840163 22.31803763 C-212.65289038 22.17937243 -212.65289038 22.17937243 -213.65289038 21.17937243 C-213.75291494 18.522838 -213.79166501 15.89807971 -213.77789038 13.24187243 C-213.78175757 12.50001696 -213.78562476 11.75816149 -213.78960913 10.99382555 C-213.77952539 5.43264245 -213.77952539 5.43264245 -212.65289038 3.17937243 C-211.99289038 3.17937243 -211.33289038 3.17937243 -210.65289038 3.17937243 C-210.65289038 2.51937243 -210.65289038 1.85937243 -210.65289038 1.17937243 C-140.43620352 0.54716216 -70.2197376 0.06132871 0 0 Z " fill="#FCFCFC" transform="translate(216.65289038419724,0.8206275701522827)"/>
<path d="M0 0 C0.66 0.33 1.32 0.66 2 1 C2 5.62 2 10.24 2 15 C15.08323923 15.15485186 28.16657055 15.29964707 41.25 15.4375 C42.29551907 15.44852123 43.34103813 15.45954247 44.41823959 15.47089767 C96.04848296 16.0109796 147.68030766 16.2852386 199.3125 16.5625 C200.34492136 16.56804948 201.37734272 16.57359897 202.44104958 16.57931662 C229.29401232 16.72357603 256.14699502 16.86383384 283 17 C282.67 17.99 282.34 18.98 282 20 C219.61820995 20.16611639 157.23865603 19.93136696 94.85776836 19.61044246 C87.45717968 19.57255897 80.05658145 19.5372505 72.65597534 19.50296021 C63.51718108 19.46049999 54.37841506 19.41425367 45.23966449 19.36322176 C40.48680979 19.33673295 35.73396007 19.31180467 30.98107719 19.29090881 C26.57932698 19.27145523 22.17762773 19.24735943 17.77592289 19.21950519 C16.16591963 19.21012606 14.55590541 19.20245652 12.94588554 19.19658196 C10.76435384 19.1883604 8.58294604 19.17410271 6.40145874 19.15821838 C5.18145864 19.15176583 3.96145855 19.14531328 2.70448875 19.1386652 C0 19 0 19 -1 18 C-1.10002455 15.34346557 -1.13877463 12.71870728 -1.125 10.0625 C-1.12886719 9.32064453 -1.13273438 8.57878906 -1.13671875 7.81445312 C-1.12663501 2.25327002 -1.12663501 2.25327002 0 0 Z " fill="#0E0E0E" transform="translate(4,4)"/>
</svg>
