<?xml version="1.0" encoding="UTF-8"?>
<svg version="1.1" xmlns="http://www.w3.org/2000/svg" width="512" height="512">
<path d="M0 0 C0.88933731 0.44538116 1.77867462 0.89076233 2.69496155 1.34963989 C3.71299362 1.85711761 4.7310257 2.36459534 5.77990723 2.88745117 C6.86441666 3.43329865 7.94892609 3.97914612 9.06629944 4.54153442 C10.75995384 5.38870529 10.75995384 5.38870529 12.48782349 6.25299072 C14.87164445 7.44640927 17.25464945 8.6413036 19.6363678 9.83889771 C22.67137556 11.3648804 25.7089768 12.88560956 28.74753475 14.40450859 C31.66741017 15.86461595 34.58557748 17.32812588 37.50379944 18.79153442 C38.58628464 19.33333344 39.66876984 19.87513245 40.78405762 20.43334961 C55.63692019 27.90617755 55.63692019 27.90617755 57.85145569 30.67434692 C59.26686846 36.68985122 56.00933367 41.96094148 53.30067444 47.10794067 C52.89075256 47.90266281 52.48083069 48.69738495 52.05848694 49.51618958 C50.72646356 52.09387999 49.38287628 54.66534238 48.03895569 57.23684692 C47.1141753 59.02082247 46.19010624 60.80516693 45.26673889 62.58987427 C43.02683392 66.9145027 40.77785209 71.23431522 38.52430725 75.55184937 C36.97424366 78.52218614 35.4285552 81.49478379 33.88270569 84.46731567 C32.93508343 86.28647948 31.98718701 88.10550051 31.03895569 89.92434692 C30.59294006 90.77988159 30.14692444 91.63541626 29.68739319 92.51687622 C27.24941313 97.18604338 24.79747664 101.84741185 22.32965088 106.50085449 C20.90852205 109.18556633 19.49573664 111.87461847 18.08427429 114.56442261 C17.39245726 115.87809333 16.69701027 117.18985939 15.99778748 118.49960327 C15.02700701 120.31877455 14.068831 122.14407174 13.11317444 123.97122192 C12.55589661 125.02406372 11.99861877 126.07690552 11.42445374 127.16165161 C10.00277862 129.83730175 10.00277862 129.83730175 11.35145569 132.79934692 C13.86299006 134.4899197 16.36201958 136.03300166 18.97645569 137.54934692 C26.45593453 141.99430304 33.77409676 146.6369496 41.03895569 151.42434692 C49.68790998 157.1101205 58.42705894 162.55800545 67.35145569 167.79934692 C67.48590088 166.49892204 67.48590088 166.49892204 67.62306213 165.17222595 C69.21839379 150.70029679 71.49447795 136.33083305 73.72889137 121.94694877 C74.07299347 119.73060972 74.41622013 117.51413685 74.75915527 115.29761696 C75.95777831 107.5507047 77.15966481 99.80430694 78.36463928 92.05838013 C79.48518172 84.85461603 80.59830309 77.6497308 81.70811224 70.44430608 C82.66559771 64.23004277 83.62824899 58.01659403 84.59492731 51.80375415 C85.17043871 48.10434919 85.74385106 44.40464896 86.31201172 40.70410728 C86.94331881 36.59363274 87.58534739 32.48490326 88.22840881 28.37625122 C88.41444168 27.15499039 88.60047455 25.93372955 88.79214478 24.67546082 C89.05697914 23.00019821 89.05697914 23.00019821 89.3271637 21.29109192 C89.47758369 20.32132258 89.62800369 19.35155325 89.78298187 18.35239697 C91.0611472 12.61207975 93.78186524 10.22653976 98.35145569 6.79934692 C99.01145569 6.79934692 99.67145569 6.79934692 100.35145569 6.79934692 C100.35145569 6.13934692 100.35145569 5.47934692 100.35145569 4.79934692 C104.68481209 1.25450246 107.50271389 0.31919186 113.05017185 0.58531189 C115.01056893 0.66298939 115.01056893 0.66298939 117.01056999 0.74223614 C118.42715784 0.81932248 119.84372891 0.89671759 121.26028442 0.97439575 C122.74432397 1.0400746 124.22845656 1.10368057 125.71266943 1.16531849 C128.77094107 1.29514142 131.82837931 1.4361337 134.88570905 1.58649063 C140.25096313 1.84769959 145.61770596 2.03972969 150.98588264 2.23168945 C156.89229152 2.44469944 162.79776559 2.68123731 168.70337021 2.91526937 C172.3861529 3.06087334 176.06900453 3.20471599 179.75184631 3.34881592 C186.910289 3.62917737 194.06866928 3.9111009 201.2270264 4.19363809 C207.05033773 4.423451 212.87367246 4.65266251 218.69702339 4.88146973 C219.53384039 4.91434985 220.37065739 4.94722997 221.23283248 4.98110646 C222.93396364 5.04794455 224.63509485 5.11478128 226.33622611 5.18161666 C242.17602061 5.80401055 258.01574375 6.42820486 273.85544176 7.05304897 C287.40231634 7.58740377 300.94925128 8.12020566 314.49623108 8.65188599 C330.31250978 9.2726306 346.12875053 9.89432907 361.94493252 10.5175333 C363.63432979 10.58409807 365.3237271 10.65066168 367.01312447 10.71722412 C368.2593038 10.76632456 368.2593038 10.76632456 369.53065846 10.81641692 C375.34448869 11.04542224 381.15834489 11.27376027 386.97221184 11.50183105 C394.05957073 11.77987807 401.14688705 12.05898308 408.23415273 12.33939624 C411.83953342 12.48202053 415.44492992 12.62420356 419.0503788 12.76509476 C433.49132191 13.32971695 447.92576368 13.92085047 462.35145569 14.79934692 C471.05681236 32.21006028 471.16969517 42.50729367 468.67277527 61.93217468 C468.50201043 63.28621382 468.331634 64.64030199 468.16160572 65.99443382 C467.69877867 69.67155323 467.23052564 73.34796323 466.76129103 77.0242697 C466.25343886 81.01096568 465.75075452 84.99831381 465.24740601 88.98558044 C464.26019523 96.79938144 463.26832652 104.61258435 462.27493151 112.42560125 C461.10711091 121.61218603 459.9442884 130.79940149 458.78169332 139.98664879 C456.69419286 156.48170736 454.6026718 172.97625355 452.50868225 189.4704895 C450.50281431 205.27065594 448.49898497 221.07107867 446.49794006 236.87185669 C446.37598141 237.83486966 446.25402276 238.79788263 446.12836839 239.79007781 C445.63727287 243.6679362 445.14618841 247.54579599 444.65511949 251.42365775 C441.48165089 276.48345733 438.30599626 301.54298046 435.12809753 326.60221863 C435.01992744 327.45524039 434.91175735 328.30826215 434.80030937 329.18713305 C433.62333509 338.46795567 432.44491561 347.74859163 431.2630024 357.02878666 C430.94483125 359.52742821 430.62667303 362.02607141 430.30852993 364.52471653 C430.09574652 366.1958458 429.88293562 367.86697157 429.67009716 369.53809383 C428.26212692 380.59570946 426.86524509 391.65466881 425.47832022 402.71494408 C424.46677628 410.7807678 423.45044265 418.84597895 422.43092098 426.91079811 C421.81841538 431.75830405 421.20859016 436.60611452 420.60512567 441.45475495 C420.04403779 445.9628146 419.4762098 450.46997326 418.9031848 454.97653063 C418.69360767 456.63471043 418.48657958 458.29321464 418.28225335 459.95204966 C418.00243134 462.22091089 417.7136065 464.4884503 417.42251396 466.75588894 C417.26304657 468.02671619 417.10357918 469.29754344 416.93927944 470.60688061 C416.01701352 475.61569982 414.57868506 477.96764575 410.47645569 480.92434692 C409.79840881 481.42192505 409.12036194 481.91950317 408.42176819 482.43215942 C406.35145569 483.79934692 406.35145569 483.79934692 404.15614319 484.79153442 C402.00024091 485.72949241 402.00024091 485.72949241 401.35145569 488.79934692 C368.66341582 489.2545991 335.99788175 488.0801813 303.32984092 487.0892185 C295.00330345 486.83678326 286.67660037 486.59001777 278.34989101 486.34332883 C263.49456498 485.90301798 248.63939952 485.45750895 233.78431702 485.00906372 C219.4094418 484.57511742 205.03444872 484.14536711 190.65931702 483.72000122 C174.9192254 483.25423884 159.17919866 482.78638935 143.43928248 482.31473202 C142.19062369 482.27731561 142.19062369 482.27731561 140.91673948 482.23914332 C139.2456201 482.18906767 137.57450085 482.13898785 135.90338172 482.0889038 C130.11178742 481.9154477 124.32015241 481.74339506 118.52850151 481.57184029 C111.4816013 481.36303458 104.43478095 481.15173163 97.388049 480.93732018 C93.799736 480.82818994 90.21140027 480.72009594 86.62296867 480.61493111 C82.72688433 480.50070856 78.83097066 480.38123813 74.93505859 480.26127625 C73.81269883 480.22917055 72.69033906 480.19706486 71.53396839 480.16398627 C68.4713895 480.06721382 65.41211172 479.94431906 62.35145569 479.79934692 C61.32539565 479.75270901 60.29933562 479.70607109 59.24218285 479.6580199 C58.26025393 479.59474478 57.27832501 479.53146967 56.26664066 479.46627712 C54.96170519 479.38782894 54.96170519 479.38782894 53.63040739 479.30779594 C50.15777427 478.5330288 48.74237553 476.63050372 46.87879944 473.72122192 C46.498526 473.04575317 46.11825256 472.37028442 45.72645569 471.67434692 C45.30751038 471.0220813 44.88856506 470.36981567 44.45692444 469.69778442 C40.35423754 463.00602327 40.10957703 456.6776243 40.91004944 448.95950317 C40.97805252 448.23371567 41.0460556 447.50792816 41.11611938 446.76014709 C41.33269244 444.45989862 41.56008938 442.16090199 41.78895569 439.86184692 C42.01268568 437.56625624 42.23396415 435.27048432 42.45108032 432.97425842 C42.5859951 431.55243693 42.72482309 430.1309788 42.8684082 428.71000671 C43.60649352 421.04217581 43.60863481 414.51386416 41.49745178 407.09841919 C41.29822585 406.36728472 41.09899992 405.63615025 40.89373684 404.88286018 C40.23036403 402.45774487 39.55263802 400.03688758 38.87489319 397.61575317 C38.39632688 395.87697731 37.91870449 394.13794142 37.44195557 392.39866638 C36.41796523 388.67029564 35.38771822 384.94373369 34.35246277 381.21847534 C32.70664196 375.29585821 31.07458097 369.36950579 29.44496155 363.44241333 C27.7587506 357.31175865 26.07173112 351.18133414 24.37994385 345.05221558 C20.70944957 331.75320321 17.06712151 318.44688461 13.45692444 305.13137817 C13.22368469 304.27121031 12.99044495 303.41104244 12.75013733 302.52480888 C11.59229204 298.25402629 10.43511629 293.98306269 9.27839661 289.7119751 C7.03061136 281.41226816 4.78015956 273.1132858 2.52723694 264.81497192 C2.31047302 264.01648897 2.09370911 263.21800602 1.87037659 262.39532661 C-1.10114839 251.45299248 -4.09564114 240.51718177 -7.11216927 229.58716965 C-7.72276352 227.37453078 -8.33281975 225.16174425 -8.94271851 222.94891357 C-11.21202767 214.71473855 -11.21202767 214.71473855 -13.49324036 206.4838562 C-14.50213104 202.85313329 -15.50547123 199.22091542 -16.50791931 195.58840942 C-16.79951431 194.54650452 -17.09110931 193.50459961 -17.39154053 192.43112183 C-22.69323031 173.14883567 -23.16205351 153.58563052 -23.72985744 133.68491173 C-23.90006964 127.85645542 -24.13971893 122.04985966 -24.54966736 116.23294067 C-27.07372875 79.50773457 -27.07372875 79.50773457 -19.94789886 69.38298035 C-10.60487292 58.98863382 2.56925445 52.07518706 15.35145569 46.79934692 C16.01145569 46.79934692 16.67145569 46.79934692 17.35145569 46.79934692 C14.14179423 41.75106459 10.49477646 37.20099596 6.66395569 32.61184692 C5.41128809 31.10018074 4.15868394 29.58846196 2.90614319 28.07669067 C1.72133563 26.65083606 0.53644635 25.22504936 -0.64854431 23.79934692 C-3.67387094 20.15283894 -6.67868555 16.49126437 -9.64854431 12.79934692 C-10.20670837 12.12387817 -10.76487244 11.44840942 -11.33995056 10.75247192 C-13.42622239 8.09204899 -14.66444565 6.49900572 -14.58604431 3.04934692 C-13.64854431 0.79934692 -13.64854431 0.79934692 -11.64854431 -2.20065308 C-7.17418747 -3.69210536 -4.17080591 -1.89073331 0 0 Z " fill="#000000" transform="translate(21.648544311523438,16.200653076171875)"/>
<path d="M0 0 C0.88933731 0.44538116 1.77867462 0.89076233 2.69496155 1.34963989 C3.71299362 1.85711761 4.7310257 2.36459534 5.77990723 2.88745117 C6.86441666 3.43329865 7.94892609 3.97914612 9.06629944 4.54153442 C10.75995384 5.38870529 10.75995384 5.38870529 12.48782349 6.25299072 C14.87164445 7.44640927 17.25464945 8.6413036 19.6363678 9.83889771 C22.67137556 11.3648804 25.7089768 12.88560956 28.74753475 14.40450859 C31.66741017 15.86461595 34.58557748 17.32812588 37.50379944 18.79153442 C38.58628464 19.33333344 39.66876984 19.87513245 40.78405762 20.43334961 C55.63692019 27.90617755 55.63692019 27.90617755 57.85145569 30.67434692 C59.26686846 36.68985122 56.00933367 41.96094148 53.30067444 47.10794067 C52.89075256 47.90266281 52.48083069 48.69738495 52.05848694 49.51618958 C50.72646356 52.09387999 49.38287628 54.66534238 48.03895569 57.23684692 C47.1141753 59.02082247 46.19010624 60.80516693 45.26673889 62.58987427 C43.02683392 66.9145027 40.77785209 71.23431522 38.52430725 75.55184937 C36.97424366 78.52218614 35.4285552 81.49478379 33.88270569 84.46731567 C32.93508343 86.28647948 31.98718701 88.10550051 31.03895569 89.92434692 C30.59294006 90.77988159 30.14692444 91.63541626 29.68739319 92.51687622 C27.24941313 97.18604338 24.79747664 101.84741185 22.32965088 106.50085449 C20.90852205 109.18556633 19.49573664 111.87461847 18.08427429 114.56442261 C17.39245726 115.87809333 16.69701027 117.18985939 15.99778748 118.49960327 C15.02700701 120.31877455 14.068831 122.14407174 13.11317444 123.97122192 C12.55589661 125.02406372 11.99861877 126.07690552 11.42445374 127.16165161 C10.00277862 129.83730175 10.00277862 129.83730175 11.35145569 132.79934692 C13.86299006 134.4899197 16.36201958 136.03300166 18.97645569 137.54934692 C26.45593453 141.99430304 33.77409676 146.6369496 41.03895569 151.42434692 C49.68790998 157.1101205 58.42705894 162.55800545 67.35145569 167.79934692 C67.48590088 166.49892204 67.48590088 166.49892204 67.62306213 165.17222595 C69.21839379 150.70029679 71.49447795 136.33083305 73.72889137 121.94694877 C74.07299347 119.73060972 74.41622013 117.51413685 74.75915527 115.29761696 C75.95777831 107.5507047 77.15966481 99.80430694 78.36463928 92.05838013 C79.48518172 84.85461603 80.59830309 77.6497308 81.70811224 70.44430608 C82.66559771 64.23004277 83.62824899 58.01659403 84.59492731 51.80375415 C85.17043871 48.10434919 85.74385106 44.40464896 86.31201172 40.70410728 C86.94331881 36.59363274 87.58534739 32.48490326 88.22840881 28.37625122 C88.41444168 27.15499039 88.60047455 25.93372955 88.79214478 24.67546082 C89.05697914 23.00019821 89.05697914 23.00019821 89.3271637 21.29109192 C89.47758369 20.32132258 89.62800369 19.35155325 89.78298187 18.35239697 C91.0611472 12.61207975 93.78186524 10.22653976 98.35145569 6.79934692 C99.01145569 6.79934692 99.67145569 6.79934692 100.35145569 6.79934692 C100.35145569 6.13934692 100.35145569 5.47934692 100.35145569 4.79934692 C104.68481209 1.25450246 107.50271389 0.31919186 113.05017185 0.58531189 C115.01056893 0.66298939 115.01056893 0.66298939 117.01056999 0.74223614 C118.42715784 0.81932248 119.84372891 0.89671759 121.26028442 0.97439575 C122.74432397 1.0400746 124.22845656 1.10368057 125.71266943 1.16531849 C128.77094107 1.29514142 131.82837931 1.4361337 134.88570905 1.58649063 C140.25096313 1.84769959 145.61770596 2.03972969 150.98588264 2.23168945 C156.89229152 2.44469944 162.79776559 2.68123731 168.70337021 2.91526937 C172.3861529 3.06087334 176.06900453 3.20471599 179.75184631 3.34881592 C186.910289 3.62917737 194.06866928 3.9111009 201.2270264 4.19363809 C207.05033773 4.423451 212.87367246 4.65266251 218.69702339 4.88146973 C219.53384039 4.91434985 220.37065739 4.94722997 221.23283248 4.98110646 C222.93396364 5.04794455 224.63509485 5.11478128 226.33622611 5.18161666 C242.17602061 5.80401055 258.01574375 6.42820486 273.85544176 7.05304897 C287.40231634 7.58740377 300.94925128 8.12020566 314.49623108 8.65188599 C330.31250978 9.2726306 346.12875053 9.89432907 361.94493252 10.5175333 C363.63432979 10.58409807 365.3237271 10.65066168 367.01312447 10.71722412 C368.2593038 10.76632456 368.2593038 10.76632456 369.53065846 10.81641692 C375.34448869 11.04542224 381.15834489 11.27376027 386.97221184 11.50183105 C394.05957073 11.77987807 401.14688705 12.05898308 408.23415273 12.33939624 C411.83953342 12.48202053 415.44492992 12.62420356 419.0503788 12.76509476 C433.49132191 13.32971695 447.92576368 13.92085047 462.35145569 14.79934692 C471.05681236 32.21006028 471.16969517 42.50729367 468.67277527 61.93217468 C468.50201043 63.28621382 468.331634 64.64030199 468.16160572 65.99443382 C467.69877867 69.67155323 467.23052564 73.34796323 466.76129103 77.0242697 C466.25343886 81.01096568 465.75075452 84.99831381 465.24740601 88.98558044 C464.26019523 96.79938144 463.26832652 104.61258435 462.27493151 112.42560125 C461.10711091 121.61218603 459.9442884 130.79940149 458.78169332 139.98664879 C456.69419286 156.48170736 454.6026718 172.97625355 452.50868225 189.4704895 C450.50281431 205.27065594 448.49898497 221.07107867 446.49794006 236.87185669 C446.37598141 237.83486966 446.25402276 238.79788263 446.12836839 239.79007781 C445.63727287 243.6679362 445.14618841 247.54579599 444.65511949 251.42365775 C441.48165089 276.48345733 438.30599626 301.54298046 435.12809753 326.60221863 C435.01992744 327.45524039 434.91175735 328.30826215 434.80030937 329.18713305 C433.62333509 338.46795567 432.44491561 347.74859163 431.2630024 357.02878666 C430.94483125 359.52742821 430.62667303 362.02607141 430.30852993 364.52471653 C430.09574652 366.1958458 429.88293562 367.86697157 429.67009716 369.53809383 C428.26212692 380.59570946 426.86524509 391.65466881 425.47832022 402.71494408 C424.46677628 410.7807678 423.45044265 418.84597895 422.43092098 426.91079811 C421.81841538 431.75830405 421.20859016 436.60611452 420.60512567 441.45475495 C420.04403779 445.9628146 419.4762098 450.46997326 418.9031848 454.97653063 C418.69360767 456.63471043 418.48657958 458.29321464 418.28225335 459.95204966 C418.00243134 462.22091089 417.7136065 464.4884503 417.42251396 466.75588894 C417.26304657 468.02671619 417.10357918 469.29754344 416.93927944 470.60688061 C416.01701352 475.61569982 414.57868506 477.96764575 410.47645569 480.92434692 C409.79840881 481.42192505 409.12036194 481.91950317 408.42176819 482.43215942 C406.35145569 483.79934692 406.35145569 483.79934692 404.15614319 484.79153442 C402.00024091 485.72949241 402.00024091 485.72949241 401.35145569 488.79934692 C368.66341582 489.2545991 335.99788175 488.0801813 303.32984092 487.0892185 C295.00330345 486.83678326 286.67660037 486.59001777 278.34989101 486.34332883 C263.49456498 485.90301798 248.63939952 485.45750895 233.78431702 485.00906372 C219.4094418 484.57511742 205.03444872 484.14536711 190.65931702 483.72000122 C174.9192254 483.25423884 159.17919866 482.78638935 143.43928248 482.31473202 C142.19062369 482.27731561 142.19062369 482.27731561 140.91673948 482.23914332 C139.2456201 482.18906767 137.57450085 482.13898785 135.90338172 482.0889038 C130.11178742 481.9154477 124.32015241 481.74339506 118.52850151 481.57184029 C111.4816013 481.36303458 104.43478095 481.15173163 97.388049 480.93732018 C93.799736 480.82818994 90.21140027 480.72009594 86.62296867 480.61493111 C82.72688433 480.50070856 78.83097066 480.38123813 74.93505859 480.26127625 C73.81269883 480.22917055 72.69033906 480.19706486 71.53396839 480.16398627 C68.4713895 480.06721382 65.41211172 479.94431906 62.35145569 479.79934692 C61.32539565 479.75270901 60.29933562 479.70607109 59.24218285 479.6580199 C58.26025393 479.59474478 57.27832501 479.53146967 56.26664066 479.46627712 C54.96170519 479.38782894 54.96170519 479.38782894 53.63040739 479.30779594 C50.15777427 478.5330288 48.74237553 476.63050372 46.87879944 473.72122192 C46.498526 473.04575317 46.11825256 472.37028442 45.72645569 471.67434692 C45.30751038 471.0220813 44.88856506 470.36981567 44.45692444 469.69778442 C40.35423754 463.00602327 40.10957703 456.6776243 40.91004944 448.95950317 C40.97805252 448.23371567 41.0460556 447.50792816 41.11611938 446.76014709 C41.33269244 444.45989862 41.56008938 442.16090199 41.78895569 439.86184692 C42.01268568 437.56625624 42.23396415 435.27048432 42.45108032 432.97425842 C42.5859951 431.55243693 42.72482309 430.1309788 42.8684082 428.71000671 C43.60649352 421.04217581 43.60863481 414.51386416 41.49745178 407.09841919 C41.29822585 406.36728472 41.09899992 405.63615025 40.89373684 404.88286018 C40.23036403 402.45774487 39.55263802 400.03688758 38.87489319 397.61575317 C38.39632688 395.87697731 37.91870449 394.13794142 37.44195557 392.39866638 C36.41796523 388.67029564 35.38771822 384.94373369 34.35246277 381.21847534 C32.70664196 375.29585821 31.07458097 369.36950579 29.44496155 363.44241333 C27.7587506 357.31175865 26.07173112 351.18133414 24.37994385 345.05221558 C20.70944957 331.75320321 17.06712151 318.44688461 13.45692444 305.13137817 C13.22368469 304.27121031 12.99044495 303.41104244 12.75013733 302.52480888 C11.59229204 298.25402629 10.43511629 293.98306269 9.27839661 289.7119751 C7.03061136 281.41226816 4.78015956 273.1132858 2.52723694 264.81497192 C2.31047302 264.01648897 2.09370911 263.21800602 1.87037659 262.39532661 C-1.10114839 251.45299248 -4.09564114 240.51718177 -7.11216927 229.58716965 C-7.72276352 227.37453078 -8.33281975 225.16174425 -8.94271851 222.94891357 C-11.21202767 214.71473855 -11.21202767 214.71473855 -13.49324036 206.4838562 C-14.50213104 202.85313329 -15.50547123 199.22091542 -16.50791931 195.58840942 C-16.79951431 194.54650452 -17.09110931 193.50459961 -17.39154053 192.43112183 C-22.69323031 173.14883567 -23.16205351 153.58563052 -23.72985744 133.68491173 C-23.90006964 127.85645542 -24.13971893 122.04985966 -24.54966736 116.23294067 C-27.07372875 79.50773457 -27.07372875 79.50773457 -19.94789886 69.38298035 C-10.60487292 58.98863382 2.56925445 52.07518706 15.35145569 46.79934692 C16.01145569 46.79934692 16.67145569 46.79934692 17.35145569 46.79934692 C14.14179423 41.75106459 10.49477646 37.20099596 6.66395569 32.61184692 C5.41128809 31.10018074 4.15868394 29.58846196 2.90614319 28.07669067 C1.72133563 26.65083606 0.53644635 25.22504936 -0.64854431 23.79934692 C-3.67387094 20.15283894 -6.67868555 16.49126437 -9.64854431 12.79934692 C-10.20670837 12.12387817 -10.76487244 11.44840942 -11.33995056 10.75247192 C-13.42622239 8.09204899 -14.66444565 6.49900572 -14.58604431 3.04934692 C-13.64854431 0.79934692 -13.64854431 0.79934692 -11.64854431 -2.20065308 C-7.17418747 -3.69210536 -4.17080591 -1.89073331 0 0 Z M114.35145569 29.79934692 C111.53157155 44.29664483 109.71853342 58.90228171 107.91010523 73.55469418 C107.47598345 77.06450621 107.03690831 80.57369917 106.59849548 84.08297729 C105.75794345 90.81756714 104.9220278 97.55272424 104.08780229 104.28810036 C103.41658408 109.70620292 102.74319375 115.12403181 102.06837463 120.54168701 C101.92462379 121.69578051 101.92462379 121.69578051 101.77796888 122.87318903 C101.58436413 124.4274963 101.39075855 125.98180346 101.19715214 127.53611052 C96.92825313 161.81463609 92.7050078 196.09852505 88.57008362 230.39349365 C86.33389226 248.93802922 84.01463505 267.46506435 81.42176819 285.96340942 C80.55767726 292.17882192 79.76699658 298.40155585 78.99427795 304.62893677 C77.91275364 313.3130641 76.82400184 321.9962286 75.72572327 330.67825317 C74.35627119 341.50667233 72.99103771 352.3356158 71.62894154 363.16496277 C70.81124105 369.6645134 69.99165346 376.1638156 69.16810608 382.66262817 C68.36281449 389.01803642 67.5623379 395.37403433 66.76518822 401.73046875 C66.4627092 404.1355763 66.15850373 406.5404674 65.85250282 408.94512939 C65.42674088 412.29311111 65.00715839 415.64181394 64.58900452 418.99075317 C64.46280731 419.9715686 64.33661011 420.95238403 64.20658875 421.96292114 C63.54865198 427.29018543 63.22656757 432.43149851 63.35145569 437.79934692 C64.14102158 437.86563293 64.93058746 437.93191895 65.74407959 438.00021362 C75.84251145 438.84826632 85.94079073 439.6981223 96.03895569 440.54934692 C97.25670622 440.65198978 97.25670622 440.65198978 98.49905777 440.75670624 C119.31461439 442.51168539 140.12756011 444.28834758 160.93278503 446.1625061 C176.13233064 447.530678 191.33883778 448.80146361 206.54847717 450.0519104 C220.13787526 451.17145149 233.71538538 452.37794082 247.28895569 453.67434692 C270.21742336 455.86123836 293.17382474 457.7076269 316.13002014 459.57473755 C319.25852388 459.82924093 322.38702221 460.08381065 325.51551819 460.33840942 C326.6653333 460.43192814 326.6653333 460.43192814 327.838377 460.52733612 C337.97760182 461.35253928 348.11483336 462.19761262 358.24989319 463.07278442 C359.36114563 463.16859802 360.47239807 463.26441162 361.61732483 463.36312866 C366.65702119 463.7984787 371.69634522 464.23768521 376.73524475 464.68215942 C378.47449605 464.83327603 380.21375345 464.98432255 381.95301819 465.13528442 C383.09303787 465.23793106 383.09303787 465.23793106 384.25608826 465.34265137 C388.63703807 465.71998519 392.95641377 465.82231228 397.35145569 465.79934692 C397.50393013 464.4170842 397.50393013 464.4170842 397.65948486 463.00689697 C398.94978408 451.31239713 400.24338505 439.6182639 401.53895569 427.92434692 C401.64216 426.99264553 401.7453643 426.06094414 401.85169601 425.10100937 C404.30557208 402.9534191 406.77021526 380.80892519 409.45848083 358.68832397 C410.96412134 346.28567165 412.31572665 333.87257551 413.59358215 321.44448853 C414.86834739 309.06758336 416.29134723 296.7136607 417.78895569 284.36184692 C419.60837803 269.3537087 421.2795341 254.33538626 422.85145569 239.29934692 C424.38457907 224.63848121 426.00934328 209.99484433 427.78895569 195.36184692 C429.94229036 177.65323271 431.8594698 159.92362309 433.7334137 142.18344116 C435.4802973 125.66421751 437.34302753 109.16506563 439.35081482 92.67562866 C441.28747627 76.74012399 442.90647038 60.78658722 444.35145569 44.79934692 C425.33340227 43.07476298 406.30808236 42.11017077 387.234272 41.31444049 C383.10472331 41.14105367 378.97541801 40.96204287 374.84608459 40.78361511 C367.83669554 40.48137095 360.82718772 40.18204359 353.81758118 39.8848877 C336.57842558 39.15386537 319.33992828 38.40751989 302.10140944 37.66165805 C299.41487282 37.54548033 296.72832859 37.42947986 294.04178238 37.31352425 C266.34928481 36.11789421 238.66094867 34.85672641 210.97645569 33.48684692 C204.81113277 33.1826137 198.64577317 32.87912904 192.48036194 32.57669067 C191.78246614 32.54242477 191.08457035 32.50815887 190.3655262 32.47285461 C175.88449028 31.76332127 161.40058988 31.13289564 146.91395569 30.54934692 C145.90190063 30.507966 144.88984558 30.46658508 143.84712219 30.4239502 C134.01018322 30.02492111 124.19863964 29.69130375 114.35145569 29.79934692 Z " fill="#000000" transform="translate(21.648544311523438,16.200653076171875)"/>
<path d="M0 0 C12.04965563 0.03425915 24.07165262 0.53019222 36.10900879 1.04789734 C38.45170266 1.14652536 40.79440514 1.24494936 43.13711548 1.34318542 C49.43358296 1.60829079 55.72984802 1.8779402 62.02606964 2.14881516 C65.9689372 2.3181233 69.91185837 2.48612704 73.85479736 2.65376282 C114.51752006 4.38414751 155.17048842 6.286143 195.82021713 8.29995728 C220.33746093 9.51385593 244.85087628 10.64944957 269.38269043 11.5308075 C282.09902819 11.9884091 294.80724607 12.54236021 307.51525879 13.19242859 C308.31826416 13.23290314 309.12126953 13.27337769 309.9486084 13.31507874 C334.90501182 14.58218162 334.90501182 14.58218162 336.45275879 16.12992859 C336.28542214 27.64790571 334.66740551 39.21511782 333.40588379 50.65141296 C333.08139318 53.59693782 332.7627947 56.54305544 332.44494629 59.48930359 C331.40880815 69.00946537 330.2892281 78.51024219 329.01135254 88.00102234 C327.7497239 97.42520235 326.69178987 106.86585885 325.69885254 116.32133484 C325.6247818 117.0266824 325.55071106 117.73202995 325.47439575 118.45875168 C324.94236223 123.53623143 324.41588971 128.61428269 323.89025879 133.69242859 C323.35993004 138.81298473 322.82754591 143.93331504 322.29097176 149.05322075 C322.08167082 151.05891366 321.8756038 153.06494323 321.66966248 155.07098389 C320.90240821 162.40770643 319.98803454 169.70336487 318.89926147 176.99954224 C318.1583641 182.19390079 317.65391368 187.40905987 317.14025879 192.62992859 C316.88481307 195.15347409 316.62821736 197.67690334 316.37072754 200.20024109 C316.30114838 200.88285004 316.23156921 201.56545898 316.15988159 202.26875305 C315.230676 211.35128603 314.25671156 220.42903592 313.27615356 229.50614929 C313.06467601 231.46714111 312.85416634 233.42823761 312.64474487 235.38945007 C311.55342351 245.60461428 310.38584058 255.79981759 309.01525879 265.98149109 C307.76698179 275.3067775 306.71530478 284.6483383 305.73400879 294.00492859 C305.66119186 294.69901447 305.58837494 295.39310036 305.51335144 296.10821915 C304.98917829 301.11504471 304.47041149 306.12242528 303.95275879 311.12992859 C303.36261822 316.83864185 302.77022812 322.54710799 302.17150879 328.25492859 C302.098374 328.95265066 302.02523922 329.65037273 301.94988823 330.3692379 C301.07444246 338.6872615 300.11867401 346.98700461 298.98791504 355.27445984 C297.61283832 365.37648514 296.53241373 375.50204489 295.48010254 385.64164734 C295.39496525 386.45916599 295.30982796 387.27668465 295.22211075 388.11897659 C294.42636859 395.76128263 293.63571436 403.40409981 292.85681152 411.04814148 C292.42557422 415.27692064 291.98678768 419.50485932 291.54315376 423.73235512 C291.37721249 425.32804082 291.21415214 426.92402897 291.0540905 428.52031517 C290.83203568 430.73303211 290.60040776 432.94455265 290.36657715 435.15605164 C290.23794785 436.41016342 290.10931854 437.66427521 289.97679138 438.95639038 C289.50800704 441.79534553 288.92394701 443.68940796 287.45275879 446.12992859 C278.44902821 446.35584434 269.58240293 445.6419511 260.62854004 444.80961609 C259.07195861 444.66875906 257.51533187 444.52840188 255.95866394 444.38850403 C252.6334573 444.0889104 249.30851813 443.78656039 245.98376465 443.48197937 C237.94928344 442.74634841 229.9134044 442.02623956 221.87752914 441.30602264 C220.03870109 441.14119868 218.19988739 440.9762145 216.3610878 440.8110733 C198.79327026 439.2339912 181.21842486 437.75333362 163.63921738 436.30956268 C136.08054152 434.04540922 108.53528914 431.65066656 80.99383545 429.186203 C62.82526177 427.560942 44.65523311 425.96233852 26.47619629 424.45805359 C25.66316795 424.39072021 24.85013962 424.32338684 24.01247406 424.25401306 C16.249549 423.61154208 8.48631497 422.97307676 0.72226334 422.34436035 C-17.729437 420.84816891 -36.14224854 419.12270721 -54.54724121 417.12992859 C-54.90406322 407.35950468 -53.55521217 397.87207337 -52.31677246 388.20414734 C-52.08163833 386.33415777 -51.84700434 384.46410524 -51.61283875 382.59399414 C-51.11969117 378.66563015 -50.62256209 374.73779904 -50.12219238 370.81034851 C-49.49638594 365.89821706 -48.87708371 360.98529861 -48.26056385 356.07199383 C-47.65665483 351.26158087 -47.04934475 346.45159876 -46.44177246 341.64164734 C-46.33329294 340.78096838 -46.22481342 339.92028942 -46.11304665 339.03352928 C-44.94035275 329.7482581 -43.73512022 320.46798843 -42.46806335 311.19508362 C-39.08852027 286.45191013 -35.9392976 261.68340614 -32.85163856 236.90222073 C-32.13467425 231.15107732 -31.41561931 225.40019523 -30.69685364 219.64927673 C-29.48794717 209.97436198 -28.28041056 200.29927711 -27.07385254 190.62406921 C-25.5528111 178.42711357 -24.02954957 166.23043634 -22.50553703 154.03385162 C-21.16827932 143.33172476 -19.83203896 132.6294709 -18.49597788 121.9271946 C-18.06035713 118.43799456 -17.62461801 114.94880932 -17.18886948 111.45962524 C-14.51840617 90.07342269 -11.84899348 68.68718528 -9.24525821 47.29273939 C-8.95071898 44.87282726 -8.65572334 42.45297119 -8.36059666 40.03313065 C-7.30332386 31.36481132 -7.30332386 31.36481132 -6.25723839 22.69513702 C-5.81280373 18.99231423 -5.36368186 15.29008791 -4.91369629 11.5879364 C-4.7873839 10.52022255 -4.66107151 9.4525087 -4.53093147 8.35243988 C-4.41444189 7.4007769 -4.29795231 6.44911392 -4.17793274 5.46861267 C-4.07931851 4.64714375 -3.98070429 3.82567482 -3.87910175 2.9793129 C-3.36069692 0.09035911 -2.99011766 0.15251864 0 0 Z M1.45275879 5.12992859 C-1.36712535 19.6272265 -3.18016348 34.23286338 -4.98859167 48.88527584 C-5.42271345 52.39508787 -5.86178859 55.90428083 -6.30020142 59.41355896 C-7.14075345 66.14814881 -7.97666909 72.8833059 -8.81089461 79.61868203 C-9.48211282 85.03678458 -10.15550315 90.45461347 -10.83032227 95.87226868 C-10.97407311 97.02636218 -10.97407311 97.02636218 -11.12072802 98.2037707 C-11.31433276 99.75807796 -11.50793835 101.31238513 -11.70154476 102.86669219 C-15.97044377 137.14521775 -20.1936891 171.42910672 -24.32861328 205.72407532 C-26.56480464 224.26861089 -28.88406185 242.79564602 -31.47692871 261.29399109 C-32.34101964 267.50940358 -33.13170032 273.73213751 -33.90441895 279.95951843 C-34.98594326 288.64364577 -36.07469506 297.32681027 -37.17297363 306.00883484 C-38.5424257 316.83725399 -39.90765919 327.66619746 -41.26975536 338.49554443 C-42.08745585 344.99509506 -42.90704344 351.49439726 -43.73059082 357.99320984 C-44.53588241 364.34861808 -45.336359 370.704616 -46.13350868 377.06105042 C-46.4359877 379.46615796 -46.74019317 381.87104906 -47.04619408 384.27571106 C-47.47195602 387.62369277 -47.89153851 390.97239561 -48.30969238 394.32133484 C-48.43588959 395.30215027 -48.56208679 396.2829657 -48.69210815 397.29350281 C-49.35004492 402.6207671 -49.67212933 407.76208018 -49.54724121 413.12992859 C-48.75767532 413.1962146 -47.96810944 413.26250061 -47.15461731 413.33079529 C-37.05618545 414.17884798 -26.95790617 415.02870396 -16.85974121 415.87992859 C-15.64199068 415.98257145 -15.64199068 415.98257145 -14.39963913 416.0872879 C6.41591749 417.84226705 27.22886321 419.61892925 48.03408813 421.49308777 C63.23363374 422.86125966 78.44014088 424.13204528 93.64978027 425.38249207 C107.23917836 426.50203315 120.81668848 427.70852249 134.39025879 429.00492859 C157.31872646 431.19182002 180.27512784 433.03820856 203.23132324 434.90531921 C206.35982698 435.1598226 209.48832531 435.41439232 212.61682129 435.66899109 C213.7666364 435.7625098 213.7666364 435.7625098 214.9396801 435.85791779 C225.07890492 436.68312095 235.21613646 437.52819428 245.35119629 438.40336609 C246.46244873 438.49917969 247.57370117 438.59499329 248.71862793 438.69371033 C253.75832429 439.12906037 258.79764832 439.56826688 263.83654785 440.01274109 C265.57579915 440.16385769 267.31505655 440.31490422 269.05432129 440.46586609 C270.19434097 440.56851273 270.19434097 440.56851273 271.35739136 440.67323303 C275.73834117 441.05056686 280.05771687 441.15289395 284.45275879 441.12992859 C284.60523323 439.74766586 284.60523323 439.74766586 284.76078796 438.33747864 C286.05108718 426.6429788 287.34468815 414.94884556 288.64025879 403.25492859 C288.7434631 402.3232272 288.8466674 401.3915258 288.95299911 400.43159103 C291.40687518 378.28400077 293.87151836 356.13950685 296.55978394 334.01890564 C298.06542444 321.61625331 299.41702975 309.20315717 300.69488525 296.77507019 C301.96965049 284.39816502 303.39265033 272.04424237 304.89025879 259.69242859 C306.70968113 244.68429036 308.3808372 229.66596792 309.95275879 214.62992859 C311.48588217 199.96906288 313.11064638 185.32542599 314.89025879 170.69242859 C317.04359346 152.98381437 318.9607729 135.25420476 320.8347168 117.51402283 C322.58160041 100.99479917 324.44433063 84.4956473 326.45211792 68.00621033 C328.38877937 52.07070565 330.00777348 36.11716889 331.45275879 20.12992859 C312.43470537 18.40534464 293.40938546 17.44075244 274.3355751 16.64502215 C270.20602641 16.47163533 266.07672111 16.29262454 261.9473877 16.11419678 C254.93799864 15.81195261 247.92849082 15.51262526 240.91888428 15.21546936 C223.67972868 14.48444704 206.44123138 13.73810156 189.20271254 12.99223971 C186.51617592 12.876062 183.82963169 12.76006152 181.14308548 12.64410591 C153.45058791 11.44847587 125.76225177 10.18730808 98.07775879 8.81742859 C91.91243587 8.51319536 85.74707627 8.20971071 79.58166504 7.90727234 C78.88376925 7.87300644 78.18587345 7.83874054 77.4668293 7.80343628 C62.98579338 7.09390293 48.50189298 6.4634773 34.01525879 5.87992859 C33.00320374 5.83854767 31.99114868 5.79716675 30.94842529 5.75453186 C21.11148632 5.35550277 11.29994274 5.02188541 1.45275879 5.12992859 Z " fill="#EFEFEF" transform="translate(134.5472412109375,40.87007141113281)"/>
</svg>
