<?xml version="1.0" encoding="UTF-8"?>
<svg version="1.1" xmlns="http://www.w3.org/2000/svg" width="294" height="24">
<path d="M0 0 C5.67747269 -0.00537158 11.35492123 -0.01593886 17.03238183 -0.02863538 C23.96039144 -0.04394833 30.88836208 -0.05194632 37.81638926 -0.05027741 C41.36207459 -0.04953641 44.90768551 -0.05187477 48.45335656 -0.06251562 C52.29679808 -0.07384671 56.14012851 -0.06956919 59.98358423 -0.06354749 C61.1173169 -0.06916952 62.25104957 -0.07479154 63.41913778 -0.08058393 C64.95591098 -0.07428842 64.95591098 -0.07428842 66.5237301 -0.06786573 C67.41322823 -0.0684105 68.30272636 -0.06895526 69.21917897 -0.06951654 C71.34710962 0.17937243 71.34710962 0.17937243 73.34710962 2.17937243 C73.59976992 5.01739395 73.71739393 7.71553022 73.72210962 10.55437243 C73.7466018 11.32265368 73.77109399 12.09093493 73.79632837 12.88249743 C73.80019555 13.62757555 73.80406274 14.37265368 73.80804712 15.14030993 C73.81626489 15.8188402 73.82448266 16.49737048 73.83294946 17.19646227 C73.10498697 20.16757351 71.72035827 21.28292699 69.34710962 23.17937243 C66.33909875 23.66711962 66.33909875 23.66711962 62.70917016 23.64934313 C62.03306506 23.65150804 61.35695997 23.65367295 60.66036683 23.65590346 C58.35106481 23.65819191 56.04297138 23.63137684 53.73382837 23.60515368 C52.02087532 23.60055462 50.30791686 23.5977084 48.59495813 23.59642565 C43.7707002 23.58742239 38.94689799 23.55268749 34.12279779 23.51413882 C28.89049581 23.47641299 23.65812222 23.46111314 18.4257229 23.44280016 C9.19988504 23.40719485 -0.0258024 23.3576936 -9.25152653 23.29986548 C-23.59049818 23.21003359 -37.92948503 23.13960616 -52.26861304 23.07976305 C-53.26061851 23.07561817 -54.25262397 23.07147329 -55.27469021 23.06720281 C-57.30388851 23.05873028 -59.33308682 23.0502593 -61.36228514 23.04178983 C-62.37828848 23.03754808 -63.39429181 23.03330632 -64.44108313 23.02893603 C-65.46475366 23.02466705 -66.48842418 23.02039807 -67.54311502 23.01599973 C-84.29285531 22.94578304 -101.04255703 22.86693352 -117.79225314 22.786946 C-123.07712752 22.76171528 -128.36200296 22.73679543 -133.64688224 22.71260989 C-144.90249322 22.66099556 -156.15807581 22.60642214 -167.41362715 22.54299545 C-172.16632499 22.51626018 -176.91901724 22.49113841 -181.67174453 22.47021258 C-186.07351221 22.4507555 -190.47522922 22.42668326 -194.87695175 22.39886189 C-196.48696172 22.38949319 -198.09698262 22.38183037 -199.70700914 22.37595868 C-201.88853943 22.36773667 -204.06994576 22.35347742 -206.25143164 22.33759081 C-207.47143174 22.33113826 -208.69143183 22.32468571 -209.94840163 22.31803763 C-212.65289038 22.17937243 -212.65289038 22.17937243 -213.65289038 21.17937243 C-213.75291494 18.522838 -213.79166501 15.89807971 -213.77789038 13.24187243 C-213.78175757 12.50001696 -213.78562476 11.75816149 -213.78960913 10.99382555 C-213.77952539 5.43264245 -213.77952539 5.43264245 -212.65289038 3.17937243 C-211.99289038 3.17937243 -211.33289038 3.17937243 -210.65289038 3.17937243 C-210.65289038 2.51937243 -210.65289038 1.85937243 -210.65289038 1.17937243 C-140.43620352 0.54716216 -70.2197376 0.06132871 0 0 Z " fill="#0A0A0A" transform="translate(216.65289038419724,0.8206275701522827)"/>
<path d="M0 0 C0.66 0 1.32 0 2 0 C2.33 4.95 2.66 9.9 3 15 C56.61809603 16.35751757 110.25156803 16.18781073 163.88274825 16.18511021 C174.2632912 16.18546606 184.64380098 16.19715745 195.02433342 16.2110464 C205.13332377 16.22408478 215.24229921 16.2294888 225.35129791 16.22884732 C231.34824851 16.22859295 237.34515807 16.23141625 243.34210014 16.24202538 C248.92828375 16.2516531 254.51438624 16.25182269 260.10057259 16.24450874 C262.14892317 16.24345904 264.19727873 16.2458485 266.24562073 16.2518692 C269.03102677 16.25953171 271.8161478 16.2549843 274.60154724 16.24723816 C275.41703629 16.25238172 276.23252535 16.25752529 277.07272619 16.26282471 C280.91443304 16.23906306 282.72602138 16.18265241 286 14 C284.84826645 16.46800047 283.95216435 18.04783565 282 20 C279.23249817 20.24723816 279.23249817 20.24723816 275.58911133 20.24291992 C274.91329828 20.24479278 274.23748524 20.24666563 273.54119301 20.24859524 C271.22136664 20.25231587 268.90183257 20.24129984 266.58203125 20.23046875 C264.86621622 20.22964737 263.15040066 20.22962452 261.43458557 20.23031616 C256.59401249 20.22923593 251.75355696 20.21455714 246.91301727 20.19743729 C242.75419105 20.18410808 238.59536489 20.17779128 234.43652344 20.17119122 C218.93647645 20.14542448 203.43659142 20.08461625 187.9366684 20.02033997 C183.59281632 20.00235908 179.24896208 19.98495819 174.9051072 19.96766895 C148.2230725 19.86136595 121.54112094 19.74135019 94.8592028 19.60900801 C88.51491435 19.5776258 82.17062155 19.5474397 75.82632309 19.51815319 C65.63067673 19.4710682 55.43505895 19.42061595 45.23946387 19.36342239 C40.48668759 19.33681035 35.73391661 19.31178533 30.98111153 19.29087448 C26.57935258 19.27141915 22.17764445 19.24733513 17.77593076 19.21949732 C16.16592414 19.21012341 14.55590659 19.20245723 12.94588339 19.19658411 C10.7643524 19.18836232 8.58294533 19.17410385 6.40145874 19.15821838 C5.18145864 19.15176583 3.96145855 19.14531328 2.70448875 19.1386652 C0 19 0 19 -1 18 C-1.10002455 15.34346557 -1.13877463 12.71870728 -1.125 10.0625 C-1.12886719 9.32064453 -1.13273438 8.57878906 -1.13671875 7.81445312 C-1.12663501 2.25327002 -1.12663501 2.25327002 0 0 Z " fill="#FAFAFA" transform="translate(4,4)"/>
</svg>
