<?xml version="1.0" encoding="UTF-8"?>
<svg version="1.1" xmlns="http://www.w3.org/2000/svg" width="512" height="512">
<path d="M0 0 C1.01164939 0.02918235 2.02329878 0.0583647 3.06560421 0.08843136 C14.34559287 0.56981539 25.26716657 2.67500816 36.29711914 4.95336914 C38.46904177 5.38395237 40.64141132 5.81228665 42.81419373 6.23851013 C48.45589411 7.34991594 54.09247764 8.48519187 59.72790527 9.62792969 C68.80235635 11.46516553 77.88295225 13.27127727 86.96601677 15.065382 C90.12005314 15.69300845 93.27094362 16.33487904 96.42176819 16.97840881 C98.34830568 17.36318852 100.27493161 17.74752579 102.20166016 18.13134766 C103.06967758 18.31260696 103.93769501 18.49386627 104.83201599 18.68061829 C111.2920888 19.94778548 116.18937595 19.68731383 122.19555664 16.75805664 C123.0650293 16.34620117 123.93450195 15.9343457 124.83032227 15.51000977 C126.57436892 14.66749335 128.31670876 13.82142956 130.05688477 12.97094727 C132.54251992 11.79732488 135.04967784 10.69904546 137.58105469 9.62837601 C138.97764145 9.03073385 140.36775164 8.41780574 141.75219727 7.79255295 C159.41744261 -0.03082031 176.25348962 -0.45049235 195.17863297 -0.34557271 C198.50031751 -0.33215984 201.82172048 -0.34460809 205.14339465 -0.35677809 C212.99871041 -0.38536235 220.85324088 -0.37432731 228.70849609 -0.3359375 C236.7303886 -0.29730217 244.75038606 -0.32012774 252.77214509 -0.374466 C259.73616491 -0.41975741 266.6996134 -0.42899347 273.66375464 -0.41019624 C277.78939646 -0.39920015 281.91402493 -0.39972726 286.03956032 -0.43412971 C306.70448141 -0.58682134 323.3706583 1.37098802 342.60571289 9.76196289 C343.9915633 10.33981534 345.37811757 10.91598561 346.76568604 11.48970032 C349.70731505 12.73759897 352.56123313 14.08218399 355.41821289 15.51196289 C356.4347998 16.01163574 357.45138672 16.51130859 358.4987793 17.02612305 C380.84394224 28.23177494 401.53256463 42.50048297 419.60571289 59.76196289 C421.20665365 61.16149498 422.81077365 62.5573995 424.41821289 63.94946289 C428.96116358 68.02854666 433.16925663 72.38570586 437.35571289 76.82446289 C437.98195557 77.48534912 438.60819824 78.14623535 439.25341797 78.82714844 C443.37390183 83.24668642 447.07879543 87.8566818 450.60571289 92.76196289 C451.30438477 92.47321289 452.00305664 92.18446289 452.72290039 91.88696289 C453.63297852 91.51571289 454.54305664 91.14446289 455.48071289 90.76196289 C456.8380957 90.20508789 456.8380957 90.20508789 458.22290039 89.63696289 C460.60571289 88.76196289 460.60571289 88.76196289 462.60571289 88.76196289 C461.60571289 91.76196289 461.60571289 91.76196289 459.53930664 92.92993164 C458.7155957 93.26637695 457.89188477 93.60282227 457.04321289 93.94946289 C456.21692383 94.29364258 455.39063477 94.63782227 454.53930664 94.99243164 C453.9012207 95.24637695 453.26313477 95.50032227 452.60571289 95.76196289 C453.08137695 96.33817383 453.55704102 96.91438477 454.04711914 97.50805664 C465.44112874 111.96564893 474.81558027 128.20993756 482.54321289 144.88696289 C482.94266113 145.74128906 483.34210938 146.59561523 483.75366211 147.47583008 C484.83254873 149.89172287 485.82319256 152.32950247 486.79844856 154.78849983 C487.36138484 156.16467107 487.9481752 157.53122125 488.55288506 158.88955498 C496.36824319 176.58606476 496.81832528 193.38139317 496.71324849 212.33488297 C496.69983562 215.65656751 496.71228387 218.97797048 496.72445387 222.29964465 C496.75303813 230.15496041 496.7420031 238.00949088 496.70361328 245.86474609 C496.66497795 253.8866386 496.68780352 261.90663606 496.74214178 269.92839509 C496.78743319 276.89241491 496.79666925 283.8558634 496.77787203 290.82000464 C496.76687593 294.94564646 496.76740304 299.07027493 496.8018055 303.19581032 C496.95449717 323.86073762 494.99667709 340.52689945 486.60571289 359.76196289 C486.02788641 361.14777793 485.45174164 362.53429663 484.87805176 363.92182922 C483.63013295 366.86343668 482.28517561 369.71734331 480.85571289 372.57446289 C480.35966553 373.58597412 479.86361816 374.59748535 479.35253906 375.63964844 C471.86677573 390.59130036 462.95386977 404.63701973 452.60571289 417.76196289 C451.76063045 418.88107207 450.91829934 420.00226287 450.07836914 421.12524414 C446.11908506 426.3980877 442.17595398 431.51597824 437.35351562 436.04345703 C435.58824877 437.77913427 433.9966809 439.59005947 432.39477539 441.47680664 C421.62841526 453.85833331 409.01844512 464.38088209 395.60571289 473.76196289 C394.99550293 474.1917041 394.38529297 474.62144531 393.7565918 475.06420898 C380.17116438 484.56489044 365.90489553 492.98590075 350.85571289 499.94946289 C350.07317139 500.3168457 349.29062988 500.68422852 348.484375 501.06274414 C346.75586116 501.83888773 345.0100349 502.57714259 343.25244141 503.28497314 C341.32346206 504.066244 339.3967801 504.85516021 337.49610996 505.70298004 C319.79402315 513.52349522 302.99258153 513.9746102 284.03279281 513.86949849 C280.71110827 513.85608562 277.38970531 513.86853387 274.06803113 513.88070387 C266.21271537 513.90928813 258.3581849 513.8982531 250.50292969 513.85986328 C242.48103718 513.82122795 234.46103972 513.84405352 226.43928069 513.89839178 C219.47526088 513.94368319 212.51181238 513.95291925 205.54767114 513.93412203 C201.42202932 513.92312593 197.29740085 513.92365304 193.17186546 513.9580555 C172.50694437 514.11074712 155.84076748 512.15293776 136.60571289 503.76196289 C135.21986248 503.18411044 133.83330821 502.60794017 132.44573975 502.03422546 C129.50411073 500.78632681 126.65019265 499.44174179 123.79321289 498.01196289 C122.77662598 497.51229004 121.76003906 497.01261719 120.71264648 496.49780273 C98.36748354 485.29215084 77.67886115 471.02344281 59.60571289 453.76196289 C58.00477213 452.3624308 56.40065213 450.96652628 54.79321289 449.57446289 C42.58295462 438.55975157 32.03842191 426.20052824 22.60571289 412.76196289 C22.17452148 412.15030273 21.74333008 411.53864258 21.29907227 410.90844727 C11.80042845 397.32436524 3.38079054 383.0590179 -3.58178711 368.01196289 C-4.13286133 366.83815063 -4.13286133 366.83815063 -4.69506836 365.640625 C-5.47077017 363.91309503 -6.20947829 362.1686662 -6.918396 360.41267395 C-7.70051578 358.47805065 -8.4895858 356.54561355 -9.3307724 354.63593197 C-16.88141242 337.31061113 -17.72149167 320.69898863 -17.76527524 302.14405823 C-17.77331837 299.72435559 -17.79253193 297.30498295 -17.81525993 294.88537598 C-17.89490182 286.34077773 -17.93282746 277.79715604 -17.93164062 269.25219727 C-17.93166819 262.31430111 -17.99432435 255.38041109 -18.11621094 248.44360352 C-18.84113819 206.23192969 -16.74954371 170.33195378 -1.51901245 130.45373535 C1.34407729 122.91002208 3.66515317 115.22024673 5.94901848 107.48551178 C6.99625268 103.95206472 8.0803429 100.43001455 9.16040039 96.90649414 C9.56652732 95.5740363 9.9724529 94.24151707 10.37817383 92.90893555 C11.22095643 90.14395184 12.06846274 87.38046955 12.91918945 84.61791992 C13.99622715 81.12015649 15.06545084 77.62009362 16.12915039 74.1182518 C16.70724295 72.22177052 17.29303561 70.32764161 17.87915039 68.43362427 C19.76555339 62.19145824 21.40675419 56.30309376 21.60571289 49.76196289 C19.71109421 47.3255555 18.47151492 46.10627162 16.04321289 44.38696289 C15.16487793 43.70778809 15.16487793 43.70778809 14.26879883 43.01489258 C13.0291655 42.05965734 11.77964678 41.1171321 10.52124023 40.18676758 C8.63014006 38.78013227 6.7804925 37.3327771 4.93774414 35.86352539 C0.59828107 32.40501038 -3.7644018 28.98211314 -8.20678711 25.65649414 C-9.01116211 25.05192383 -9.81553711 24.44735352 -10.64428711 23.82446289 C-11.33006836 23.32043945 -12.01584961 22.81641602 -12.72241211 22.29711914 C-15.77416129 19.49492889 -16.35076513 17.08837772 -16.89428711 13.01196289 C-16.74648478 8.58050837 -15.06302076 5.87132125 -12.35365105 2.44737434 C-8.65821016 -0.7313809 -4.65947423 -0.24996713 0 0 Z M227.4675293 11.80004883 C171.25465596 13.12525008 115.41590844 37.55241706 74.60571289 75.76196289 C73.10557355 77.10534164 71.60542459 78.44870972 70.10498047 79.79174805 C54.983498 93.42164767 42.41069186 109.5580449 31.60571289 126.76196289 C31.19611328 127.4082666 30.78651367 128.05457031 30.36450195 128.72045898 C4.24006888 170.29318093 -6.33035523 218.13621155 -5.39428711 266.76196289 C-5.38171875 267.46756348 -5.36915039 268.17316406 -5.35620117 268.90014648 C-4.03099992 325.11301982 20.39616706 380.95176734 58.60571289 421.76196289 C59.94909164 423.26210224 61.29245972 424.76225119 62.63549805 426.26269531 C76.26539767 441.38417778 92.4017949 453.95698392 109.60571289 464.76196289 C110.2520166 465.1715625 110.89832031 465.58116211 111.56420898 466.00317383 C153.13693093 492.1276069 200.97996155 502.69803101 249.60571289 501.76196289 C250.66411377 501.74311035 250.66411377 501.74311035 251.74389648 501.72387695 C307.95676982 500.39867571 363.79551734 475.97150872 404.60571289 437.76196289 C406.10585224 436.41858414 407.60600119 435.07521606 409.10644531 433.73217773 C424.22792778 420.10227811 436.80073392 403.96588088 447.60571289 386.76196289 C448.0153125 386.11565918 448.42491211 385.46935547 448.84692383 384.8034668 C474.9713569 343.23074485 485.54178101 295.38771423 484.60571289 246.76196289 C484.58686035 245.70356201 484.58686035 245.70356201 484.56762695 244.6237793 C483.24242571 188.41090596 458.81525872 132.57215844 420.60571289 91.76196289 C419.26233414 90.26182355 417.91896606 88.76167459 416.57592773 87.26123047 C402.94602811 72.139748 386.80963088 59.56694186 369.60571289 48.76196289 C368.95940918 48.35236328 368.31310547 47.94276367 367.6472168 47.52075195 C325.21002721 20.85308462 276.97153916 10.91826925 227.4675293 11.80004883 Z " fill="#000000" transform="translate(16.394287109375,-0.7619628906249999)"/>
<path d="M0 0 C2.53964783 0.63461939 5.0797598 1.26675642 7.62109375 1.89453125 C8.28515732 2.05915863 8.94922089 2.22378601 9.63340759 2.3934021 C19.58430514 4.84310084 29.60485393 6.99321904 39.61523438 9.18383789 C43.74641884 10.08895549 47.87386329 11.00962521 52 11.9375 C53.18190918 12.19982422 54.36381836 12.46214844 55.58154297 12.73242188 C56.64646973 12.98056641 57.71139648 13.22871094 58.80859375 13.484375 C59.72310303 13.69416992 60.6376123 13.90396484 61.57983398 14.12011719 C64.22870772 15.01474336 65.94509025 16.04845609 68 17.9375 C68.4375 20.4375 68.4375 20.4375 68 22.9375 C66.76513672 24.59838867 66.76513672 24.59838867 65 25.9375 C56.11209349 26.80553117 46.45570069 23.29267425 37.875 21.125 C36.40175378 20.75951322 34.92828208 20.3949342 33.45458984 20.03125 C30.5867208 19.32284399 27.71971022 18.61114624 24.85351562 17.89599609 C20.11656491 16.71776063 15.3743576 15.56456699 10.625 14.4375 C9.37976562 14.1384375 8.13453125 13.839375 6.8515625 13.53125 C3.99595225 12.83557643 3.99595225 12.83557643 1 12.9375 C1.45213867 13.25388428 1.90427734 13.57026855 2.37011719 13.89624023 C27.71476936 31.65226936 27.71476936 31.65226936 32 35.9375 C31.67028521 39.23464793 31.3773161 40.5601839 29 42.9375 C25.91470855 43.52296193 23.83074782 43.3915811 21.05078125 41.87207031 C18.80906877 40.33588742 16.65222386 38.72173583 14.5 37.0625 C12.88571816 35.85636721 11.27113193 34.65064171 9.65625 33.4453125 C8.86347656 32.8462207 8.07070313 32.24712891 7.25390625 31.62988281 C4.20817166 29.34294258 1.10978317 27.13604866 -2 24.9375 C-3.1098469 24.14649503 -4.2192104 23.35481144 -5.328125 22.5625 C-5.90369141 22.15128906 -6.47925781 21.74007812 -7.07226562 21.31640625 C-10.96894118 18.52911857 -14.8610577 15.73556625 -18.75 12.9375 C-19.53761719 12.37289063 -20.32523438 11.80828125 -21.13671875 11.2265625 C-21.87019531 10.69804687 -22.60367187 10.16953125 -23.359375 9.625 C-24.01389648 9.15449219 -24.66841797 8.68398438 -25.34277344 8.19921875 C-27 6.9375 -27 6.9375 -29 4.9375 C-29.375 2 -29.375 2 -29 -1.0625 C-22.18973532 -7.93498142 -8.16581026 -2.10381228 0 0 Z " fill="#F8F8F8" transform="translate(35,11.0625)"/>
<path d="" fill="#000000" transform="translate(0,0)"/>
</svg>
