<?xml version="1.0" encoding="UTF-8"?>
<svg version="1.1" xmlns="http://www.w3.org/2000/svg" width="512" height="512">
<path d="M0 0 C2.45728563 3.68592844 2.09555691 5.10619714 1.6875 9.4375 C1.53861328 11.13712891 1.53861328 11.13712891 1.38671875 12.87109375 C1.07995526 15.35308925 0.63444356 17.59406243 0 20 C0.74502274 19.74943848 1.49004547 19.49887695 2.25764465 19.24072266 C9.27481113 16.88164037 16.29340532 14.52687854 23.31364918 12.17697144 C26.92287781 10.96867389 30.53152853 9.75870623 34.13891602 8.54492188 C37.61944902 7.37388876 41.101424 6.20724284 44.58444786 5.04364014 C45.91385012 4.59865661 47.24272276 4.15208763 48.57105446 3.70391846 C50.429836 3.07707906 52.29067981 2.45636504 54.15161133 1.8359375 C55.21084305 1.48063965 56.27007477 1.1253418 57.36140442 0.75927734 C60 0 60 0 63 0 C64.38726099 15.06778863 62.76770986 28.26858461 58.625 42.6875 C58.42851868 43.37614136 58.23203735 44.06478271 58.02960205 44.77429199 C57.42118085 46.8785222 56.79662729 48.97712282 56.1640625 51.07421875 C55.93733856 51.83002228 55.71061462 52.58582581 55.47702026 53.36453247 C54.06674644 57.93348672 52.47527183 62.36907999 50.68945312 66.80517578 C41.26403509 91.08700249 39.01775147 116.54267262 35.99173403 142.24120802 C35.07002038 150.05640306 34.10509991 157.86619728 33.14111328 165.67626953 C32.77192326 168.67149945 32.40311237 171.6667759 32.03451538 174.66207886 C31.9415495 175.41743459 31.84858361 176.17279032 31.75280058 176.95103562 C31.07843008 182.43605106 30.41071146 187.9218548 29.74551392 193.4079895 C26.84174051 217.3388309 23.82132856 241.2536206 20.75248718 265.16382599 C19.98009507 271.18176919 19.20960657 277.19995501 18.4395752 283.21820068 C18.18417909 285.21399313 17.92878256 287.20978552 17.67338562 289.20557785 C17.29160875 292.18909882 16.90983411 295.17262007 16.52806282 298.15614176 C16.14811817 301.12517912 15.76811208 304.09420861 15.38806152 307.06323242 C15.20069081 308.52702556 15.20069081 308.52702556 15.00953484 310.02039027 C14.25277378 315.93042718 13.49407566 321.84021223 12.73412216 327.74983943 C11.52199644 337.17595435 10.31556968 346.60275818 9.12080181 356.03109038 C8.56910686 360.38309846 8.01424821 364.73464392 7.4510994 369.085186 C6.93182612 373.09707116 6.42114953 377.10995448 5.91722441 381.12379551 C5.73277778 382.58067052 5.54518198 384.037151 5.35413027 385.49317455 C5.09432612 387.47683379 4.84714495 389.462134 4.60055542 391.44747925 C4.45947798 392.55141966 4.31840054 393.65536007 4.17304802 394.79275322 C3.89625217 399.92284721 3.98711472 403.74002679 7.2578125 407.80859375 C8.20398438 408.67613281 9.15015625 409.54367187 10.125 410.4375 C14.07176908 414.10548068 17.67873359 417.84966282 21.19677734 421.93188477 C24.12421284 425.28935919 27.19026467 428.51347103 30.25 431.75 C36.55596844 438.45053183 42.81933791 445.1835531 49 452 C49.65097656 452.69867188 50.30195313 453.39734375 50.97265625 454.1171875 C56.10833505 459.77493294 56.10833505 459.77493294 56 464 C53.8 469.2 53.8 469.2 52 471 C42.40555051 471.6718556 33.0329574 470.39534863 23.5625 469 C20.93951925 468.6195896 18.31571191 468.24630146 15.69140625 467.875 C14.54873291 467.70742188 13.40605957 467.53984375 12.22875977 467.3671875 C9.11943721 467.01358288 6.12602819 466.93378437 3 467 C3.3403125 468.0209375 3.3403125 468.0209375 3.6875 469.0625 C4.11059849 473.03962581 3.02743105 475.6596038 1 479 C-1.84293917 482.39451576 -4.95854013 485.4713164 -8.125 488.5625 C-8.94226563 489.38685547 -9.75953125 490.21121094 -10.6015625 491.06054688 C-13.02492649 493.45898703 -15.40284918 495.78889953 -18 498 C-18.56771154 498.50276587 -19.13542307 499.00553173 -19.72033799 499.52353293 C-26.6591328 504.95764982 -33.11582588 504.73141596 -41.6166687 504.42564392 C-43.04026668 504.39696115 -44.46392088 504.37095786 -45.88761413 504.34747499 C-49.55231455 504.2797828 -53.21502781 504.17601105 -56.87855643 504.0624083 C-60.15238749 503.96609924 -63.42677318 503.90205605 -66.70132828 503.83563423 C-73.81579255 503.68120611 -80.92818165 503.47371065 -88.04085612 503.25377214 C-91.69557033 503.14185742 -95.35045087 503.03561343 -99.00531006 502.92855835 C-106.10981363 502.71960528 -113.2141583 502.50567546 -120.31845666 502.28986973 C-128.62039135 502.0378636 -136.92247323 501.79087332 -145.22456132 501.5439819 C-160.04094094 501.10318468 -174.85717761 500.65775612 -189.67333984 500.2097168 C-204.00656286 499.77628389 -218.33989017 499.34652659 -232.67333984 498.9206543 C-248.36104926 498.4545383 -264.0487027 497.98661751 -279.73625934 497.51538509 C-280.98187501 497.47796869 -280.98187501 497.47796869 -282.25265463 497.4397964 C-283.91970003 497.3897204 -285.58674531 497.33964057 -287.25379048 497.28955688 C-293.02539872 497.1162598 -298.79704207 496.94416441 -304.56869888 496.77249336 C-311.59876433 496.56333058 -318.62876059 496.35199058 -325.65867998 496.13797326 C-329.2372166 496.02907295 -332.81577352 495.92105558 -336.39441299 495.81558418 C-340.28526776 495.7008746 -344.17597551 495.58160331 -348.06668091 495.46192932 C-349.17913968 495.42982363 -350.29159846 495.39771793 -351.4377681 495.36463934 C-354.62638299 495.26435544 -357.81267977 495.13494954 -361 495 C-362.8504406 494.94513422 -362.8504406 494.94513422 -364.73826385 494.88916004 C-366.5982603 494.80598488 -366.5982603 494.80598488 -368.49583244 494.72112942 C-370.18282873 494.65777233 -370.18282873 494.65777233 -371.90390575 494.5931353 C-377.68239118 493.48612001 -380.79106703 489.37740803 -383.99707031 484.77514648 C-389.92270735 475.6524369 -391.17978663 468.91302637 -390 458 C-389.83396137 456.05377075 -389.67281569 454.1071201 -389.515625 452.16015625 C-389.12186765 447.35639254 -388.673636 442.56049989 -388.18359375 437.765625 C-387.73910619 431.06994003 -388.10249426 425.44460032 -389.91748047 418.96923828 C-390.22582966 417.82224473 -390.22582966 417.82224473 -390.54040813 416.65207958 C-391.22312539 414.12212734 -391.92008316 411.59633482 -392.6171875 409.0703125 C-393.10666086 407.26799265 -393.59524231 405.46543036 -394.08299255 403.66264343 C-395.39572279 398.82048219 -396.72078913 393.98177612 -398.04819107 389.14361954 C-399.43680591 384.0738873 -400.81386646 379.00101855 -402.19213867 373.9284668 C-404.68303076 364.76751237 -407.18339804 355.60917918 -409.68863392 346.45213795 C-411.72711178 339.00056048 -413.75987803 331.54744644 -415.78823853 324.09310913 C-416.54403977 321.31577141 -417.30172743 318.53895978 -418.06112671 315.76260376 C-419.6990521 309.77029142 -421.32764224 303.77627277 -422.90881538 297.76869774 C-423.79046868 294.42079775 -424.68019239 291.07508437 -425.57421875 287.73046875 C-425.74946705 287.07409801 -425.92471535 286.41772728 -426.1052742 285.74146652 C-428.39499367 277.22364452 -431.0062819 268.89359921 -433.96710205 260.58618164 C-447.68119147 222.09765505 -451.36746274 183.90087208 -452.05591536 143.27817822 C-452.14403131 138.3754188 -452.30928201 133.47919011 -452.50445557 128.57965088 C-454.21369806 83.72824922 -454.21369806 83.72824922 -445.69439697 73.43341064 C-437.7383505 65.42290832 -427.55707514 60.62924742 -417 57 C-417.87598316 52.44587253 -420.54733336 49.74414082 -423.5625 46.375 C-424.66137918 45.12086215 -425.75903158 43.86564835 -426.85546875 42.609375 C-427.39349121 41.99513672 -427.93151367 41.38089844 -428.48583984 40.74804688 C-445.36769108 21.25851852 -445.36769108 21.25851852 -445.29296875 13.0390625 C-444.83745033 9.86865433 -443.24684343 8.1807598 -441 6 C-437.76129839 4.38064919 -434.51099024 4.56253155 -431 5 C-427.88281434 6.04163791 -425.04309297 7.49862286 -422.13671875 9.0234375 C-421.30525833 9.44364166 -420.47379791 9.86384583 -419.61714172 10.29678345 C-416.96602574 11.64129536 -414.3269373 13.00772937 -411.6875 14.375 C-409.95841623 15.25534926 -408.22860306 16.13426745 -406.49804688 17.01171875 C-402.186567 19.20397253 -397.88896218 21.42182155 -393.59710693 23.65222168 C-390.95016444 25.02586235 -388.29866977 26.39044728 -385.64697266 27.75488281 C-383.93756121 28.64076621 -382.22840414 29.52714067 -380.51953125 30.4140625 C-379.73519211 30.81636078 -378.95085297 31.21865906 -378.14274597 31.63314819 C-368.3346337 36.75538878 -368.3346337 36.75538878 -365.625 41.3125 C-364.20164941 47.43290755 -366.46369817 52.62715941 -369.32421875 57.953125 C-369.66194809 58.60204712 -369.99967743 59.25096924 -370.34764099 59.91955566 C-371.45134752 62.03487936 -372.56932936 64.14229203 -373.6875 66.25 C-374.46504791 67.73416766 -375.2415653 69.21887563 -376.01708984 70.70410156 C-377.5898359 73.71297128 -379.16781603 76.71899622 -380.75048828 79.72265625 C-383.90634857 85.71573139 -387.01371809 91.73368158 -390.125 97.75 C-391.24575333 99.91033289 -392.36684946 102.07048797 -393.48828125 104.23046875 C-397.43607006 111.83784535 -401.37484551 119.44987455 -405.3125 127.0625 C-405.80934296 128.02283142 -405.80934296 128.02283142 -406.31622314 129.00256348 C-407.248729 130.80501518 -408.18101052 132.60758293 -409.11328125 134.41015625 C-409.91439331 135.95908569 -409.91439331 135.95908569 -410.73168945 137.53930664 C-411.49593093 139.02203808 -412.25400301 140.50800602 -413 142 C-412.33226562 142.22945312 -411.66453125 142.45890625 -410.9765625 142.6953125 C-407.15446185 144.37061646 -403.84528442 146.57220892 -400.375 148.875 C-398.86391648 149.86555305 -397.35217178 150.85509805 -395.83984375 151.84375 C-395.05206543 152.359375 -394.26428711 152.875 -393.45263672 153.40625 C-389.30538307 156.1011805 -385.1221406 158.73863511 -380.9375 161.375 C-380.16519043 161.86210449 -379.39288086 162.34920898 -378.59716797 162.85107422 C-373.73874287 165.91241801 -368.87131674 168.95922167 -364 172 C-361.25404568 158.33191436 -359.17543931 144.56513707 -357.07058716 130.78663254 C-356.42679543 126.57403869 -355.77730532 122.36233497 -355.12670898 118.15078735 C-354.90259627 116.69956886 -354.67849049 115.24834929 -354.45439148 113.79712868 C-354.28632272 112.70875957 -354.28632272 112.70875957 -354.11485863 111.59840322 C-352.60540723 101.82036098 -351.10083923 92.04158564 -349.60644531 82.26123047 C-348.59210578 75.62299223 -347.57057847 68.98590277 -346.54091358 62.35002387 C-345.99829062 58.85096154 -345.45938339 55.3514172 -344.92941284 51.85041428 C-344.34011369 47.95765008 -343.73514844 44.06740954 -343.12890625 40.17724609 C-342.95739044 39.02705994 -342.78587463 37.87687378 -342.60916138 36.6918335 C-340.90163136 25.90100908 -337.39675785 20.8127284 -329 14 C-328.36191406 13.47664063 -327.72382813 12.95328125 -327.06640625 12.4140625 C-320.36565831 7.25045718 -313.74486315 7.91053825 -305.70967102 8.25938416 C-304.15778958 8.3193558 -304.15778958 8.3193558 -302.57455701 8.380539 C-299.10844596 8.51597813 -295.64275846 8.66023639 -292.17700195 8.80444336 C-289.6915547 8.90335334 -287.2060855 9.00171317 -284.72059631 9.0995636 C-279.36760226 9.31149779 -274.0147795 9.52718481 -268.66207314 9.74622917 C-260.91104795 10.06337215 -253.1597453 10.37324776 -245.40835371 10.68128986 C-232.81574821 11.18187907 -220.2233571 11.68766161 -207.63110352 12.19702148 C-195.42772294 12.69063427 -183.22429051 13.18291431 -171.02075195 13.67260742 C-170.26985085 13.7027401 -169.51894975 13.73287278 -168.74529407 13.76391857 C-160.53849283 14.09318914 -152.33166779 14.4218607 -144.12481213 14.74977207 C-143.04111798 14.79307328 -143.04111798 14.79307328 -141.93553102 14.83724927 C-139.04632522 14.95268394 -136.15711907 15.06811 -133.26790979 15.18345744 C-124.82674905 15.52047022 -116.38566757 15.85933295 -107.9447182 16.20160092 C-102.01667388 16.44191727 -96.08854748 16.68016116 -90.16039085 16.91769218 C-87.73485073 17.0152745 -85.30934105 17.11361691 -82.88386536 17.21278763 C-79.5644038 17.34842474 -76.2448435 17.4813401 -72.92524719 17.6136322 C-71.9730803 17.6532238 -71.02091341 17.69281541 -70.03989297 17.73360676 C-67.36010035 17.83881396 -64.68084332 17.9264604 -62 18 C-60.5411018 18.04012024 -60.5411018 18.04012024 -59.05273092 18.08105099 C-58.08739639 18.09602529 -57.12206187 18.11099959 -56.12747478 18.12642765 C-55.26272052 18.14192695 -54.39796625 18.15742624 -53.5070073 18.17339522 C-48.96953991 17.8595648 -45.13331276 16.01187106 -41.0625 14.09765625 C-40.1751416 13.70049911 -39.2877832 13.30334198 -38.37353516 12.89414978 C-35.57329182 11.63593275 -32.7868121 10.3501511 -30 9.0625 C-28.10112547 8.20186486 -26.20139158 7.34312313 -24.30078125 6.48632812 C-20.14001213 4.60981849 -15.98803398 2.71518391 -11.84326172 0.80360413 C-7.4644103 -1.10543735 -4.66307341 -1.01739783 0 0 Z " fill="#000000" transform="translate(449,5)"/>
<path d="M0 0 C2.45728563 3.68592844 2.09555691 5.10619714 1.6875 9.4375 C1.53861328 11.13712891 1.53861328 11.13712891 1.38671875 12.87109375 C1.07995526 15.35308925 0.63444356 17.59406243 0 20 C0.74502274 19.74943848 1.49004547 19.49887695 2.25764465 19.24072266 C9.27481113 16.88164037 16.29340532 14.52687854 23.31364918 12.17697144 C26.92287781 10.96867389 30.53152853 9.75870623 34.13891602 8.54492188 C37.61944902 7.37388876 41.101424 6.20724284 44.58444786 5.04364014 C45.91385012 4.59865661 47.24272276 4.15208763 48.57105446 3.70391846 C50.429836 3.07707906 52.29067981 2.45636504 54.15161133 1.8359375 C55.21084305 1.48063965 56.27007477 1.1253418 57.36140442 0.75927734 C60 0 60 0 63 0 C64.38726099 15.06778863 62.76770986 28.26858461 58.625 42.6875 C58.42851868 43.37614136 58.23203735 44.06478271 58.02960205 44.77429199 C57.42118085 46.8785222 56.79662729 48.97712282 56.1640625 51.07421875 C55.93733856 51.83002228 55.71061462 52.58582581 55.47702026 53.36453247 C54.06674644 57.93348672 52.47527183 62.36907999 50.68945312 66.80517578 C41.26403509 91.08700249 39.01775147 116.54267262 35.99173403 142.24120802 C35.07002038 150.05640306 34.10509991 157.86619728 33.14111328 165.67626953 C32.77192326 168.67149945 32.40311237 171.6667759 32.03451538 174.66207886 C31.9415495 175.41743459 31.84858361 176.17279032 31.75280058 176.95103562 C31.07843008 182.43605106 30.41071146 187.9218548 29.74551392 193.4079895 C26.84174051 217.3388309 23.82132856 241.2536206 20.75248718 265.16382599 C19.98009507 271.18176919 19.20960657 277.19995501 18.4395752 283.21820068 C18.18417909 285.21399313 17.92878256 287.20978552 17.67338562 289.20557785 C17.29160875 292.18909882 16.90983411 295.17262007 16.52806282 298.15614176 C16.14811817 301.12517912 15.76811208 304.09420861 15.38806152 307.06323242 C15.20069081 308.52702556 15.20069081 308.52702556 15.00953484 310.02039027 C14.25277378 315.93042718 13.49407566 321.84021223 12.73412216 327.74983943 C11.52199644 337.17595435 10.31556968 346.60275818 9.12080181 356.03109038 C8.56910686 360.38309846 8.01424821 364.73464392 7.4510994 369.085186 C6.93182612 373.09707116 6.42114953 377.10995448 5.91722441 381.12379551 C5.73277778 382.58067052 5.54518198 384.037151 5.35413027 385.49317455 C5.09432612 387.47683379 4.84714495 389.462134 4.60055542 391.44747925 C4.45947798 392.55141966 4.31840054 393.65536007 4.17304802 394.79275322 C3.89625217 399.92284721 3.98711472 403.74002679 7.2578125 407.80859375 C8.20398438 408.67613281 9.15015625 409.54367187 10.125 410.4375 C14.07176908 414.10548068 17.67873359 417.84966282 21.19677734 421.93188477 C24.12421284 425.28935919 27.19026467 428.51347103 30.25 431.75 C36.55596844 438.45053183 42.81933791 445.1835531 49 452 C49.65097656 452.69867188 50.30195313 453.39734375 50.97265625 454.1171875 C56.10833505 459.77493294 56.10833505 459.77493294 56 464 C53.8 469.2 53.8 469.2 52 471 C42.40555051 471.6718556 33.0329574 470.39534863 23.5625 469 C20.93951925 468.6195896 18.31571191 468.24630146 15.69140625 467.875 C14.54873291 467.70742188 13.40605957 467.53984375 12.22875977 467.3671875 C9.11943721 467.01358288 6.12602819 466.93378437 3 467 C3.3403125 468.0209375 3.3403125 468.0209375 3.6875 469.0625 C4.11059849 473.03962581 3.02743105 475.6596038 1 479 C-1.84293917 482.39451576 -4.95854013 485.4713164 -8.125 488.5625 C-8.94226563 489.38685547 -9.75953125 490.21121094 -10.6015625 491.06054688 C-13.02492649 493.45898703 -15.40284918 495.78889953 -18 498 C-18.56771154 498.50276587 -19.13542307 499.00553173 -19.72033799 499.52353293 C-26.6591328 504.95764982 -33.11582588 504.73141596 -41.6166687 504.42564392 C-43.04026668 504.39696115 -44.46392088 504.37095786 -45.88761413 504.34747499 C-49.55231455 504.2797828 -53.21502781 504.17601105 -56.87855643 504.0624083 C-60.15238749 503.96609924 -63.42677318 503.90205605 -66.70132828 503.83563423 C-73.81579255 503.68120611 -80.92818165 503.47371065 -88.04085612 503.25377214 C-91.69557033 503.14185742 -95.35045087 503.03561343 -99.00531006 502.92855835 C-106.10981363 502.71960528 -113.2141583 502.50567546 -120.31845666 502.28986973 C-128.62039135 502.0378636 -136.92247323 501.79087332 -145.22456132 501.5439819 C-160.04094094 501.10318468 -174.85717761 500.65775612 -189.67333984 500.2097168 C-204.00656286 499.77628389 -218.33989017 499.34652659 -232.67333984 498.9206543 C-248.36104926 498.4545383 -264.0487027 497.98661751 -279.73625934 497.51538509 C-280.98187501 497.47796869 -280.98187501 497.47796869 -282.25265463 497.4397964 C-283.91970003 497.3897204 -285.58674531 497.33964057 -287.25379048 497.28955688 C-293.02539872 497.1162598 -298.79704207 496.94416441 -304.56869888 496.77249336 C-311.59876433 496.56333058 -318.62876059 496.35199058 -325.65867998 496.13797326 C-329.2372166 496.02907295 -332.81577352 495.92105558 -336.39441299 495.81558418 C-340.28526776 495.7008746 -344.17597551 495.58160331 -348.06668091 495.46192932 C-349.17913968 495.42982363 -350.29159846 495.39771793 -351.4377681 495.36463934 C-354.62638299 495.26435544 -357.81267977 495.13494954 -361 495 C-362.8504406 494.94513422 -362.8504406 494.94513422 -364.73826385 494.88916004 C-366.5982603 494.80598488 -366.5982603 494.80598488 -368.49583244 494.72112942 C-370.18282873 494.65777233 -370.18282873 494.65777233 -371.90390575 494.5931353 C-377.68239118 493.48612001 -380.79106703 489.37740803 -383.99707031 484.77514648 C-389.92270735 475.6524369 -391.17978663 468.91302637 -390 458 C-389.83396137 456.05377075 -389.67281569 454.1071201 -389.515625 452.16015625 C-389.12186765 447.35639254 -388.673636 442.56049989 -388.18359375 437.765625 C-387.73910619 431.06994003 -388.10249426 425.44460032 -389.91748047 418.96923828 C-390.22582966 417.82224473 -390.22582966 417.82224473 -390.54040813 416.65207958 C-391.22312539 414.12212734 -391.92008316 411.59633482 -392.6171875 409.0703125 C-393.10666086 407.26799265 -393.59524231 405.46543036 -394.08299255 403.66264343 C-395.39572279 398.82048219 -396.72078913 393.98177612 -398.04819107 389.14361954 C-399.43680591 384.0738873 -400.81386646 379.00101855 -402.19213867 373.9284668 C-404.68303076 364.76751237 -407.18339804 355.60917918 -409.68863392 346.45213795 C-411.72711178 339.00056048 -413.75987803 331.54744644 -415.78823853 324.09310913 C-416.54403977 321.31577141 -417.30172743 318.53895978 -418.06112671 315.76260376 C-419.6990521 309.77029142 -421.32764224 303.77627277 -422.90881538 297.76869774 C-423.79046868 294.42079775 -424.68019239 291.07508437 -425.57421875 287.73046875 C-425.74946705 287.07409801 -425.92471535 286.41772728 -426.1052742 285.74146652 C-428.39499367 277.22364452 -431.0062819 268.89359921 -433.96710205 260.58618164 C-447.68119147 222.09765505 -451.36746274 183.90087208 -452.05591536 143.27817822 C-452.14403131 138.3754188 -452.30928201 133.47919011 -452.50445557 128.57965088 C-454.21369806 83.72824922 -454.21369806 83.72824922 -445.69439697 73.43341064 C-437.7383505 65.42290832 -427.55707514 60.62924742 -417 57 C-417.87598316 52.44587253 -420.54733336 49.74414082 -423.5625 46.375 C-424.66137918 45.12086215 -425.75903158 43.86564835 -426.85546875 42.609375 C-427.39349121 41.99513672 -427.93151367 41.38089844 -428.48583984 40.74804688 C-445.36769108 21.25851852 -445.36769108 21.25851852 -445.29296875 13.0390625 C-444.83745033 9.86865433 -443.24684343 8.1807598 -441 6 C-437.76129839 4.38064919 -434.51099024 4.56253155 -431 5 C-427.88281434 6.04163791 -425.04309297 7.49862286 -422.13671875 9.0234375 C-421.30525833 9.44364166 -420.47379791 9.86384583 -419.61714172 10.29678345 C-416.96602574 11.64129536 -414.3269373 13.00772937 -411.6875 14.375 C-409.95841623 15.25534926 -408.22860306 16.13426745 -406.49804688 17.01171875 C-402.186567 19.20397253 -397.88896218 21.42182155 -393.59710693 23.65222168 C-390.95016444 25.02586235 -388.29866977 26.39044728 -385.64697266 27.75488281 C-383.93756121 28.64076621 -382.22840414 29.52714067 -380.51953125 30.4140625 C-379.73519211 30.81636078 -378.95085297 31.21865906 -378.14274597 31.63314819 C-368.3346337 36.75538878 -368.3346337 36.75538878 -365.625 41.3125 C-364.20164941 47.43290755 -366.46369817 52.62715941 -369.32421875 57.953125 C-369.66194809 58.60204712 -369.99967743 59.25096924 -370.34764099 59.91955566 C-371.45134752 62.03487936 -372.56932936 64.14229203 -373.6875 66.25 C-374.46504791 67.73416766 -375.2415653 69.21887563 -376.01708984 70.70410156 C-377.5898359 73.71297128 -379.16781603 76.71899622 -380.75048828 79.72265625 C-383.90634857 85.71573139 -387.01371809 91.73368158 -390.125 97.75 C-391.24575333 99.91033289 -392.36684946 102.07048797 -393.48828125 104.23046875 C-397.43607006 111.83784535 -401.37484551 119.44987455 -405.3125 127.0625 C-405.80934296 128.02283142 -405.80934296 128.02283142 -406.31622314 129.00256348 C-407.248729 130.80501518 -408.18101052 132.60758293 -409.11328125 134.41015625 C-409.91439331 135.95908569 -409.91439331 135.95908569 -410.73168945 137.53930664 C-411.49593093 139.02203808 -412.25400301 140.50800602 -413 142 C-412.33226562 142.22945312 -411.66453125 142.45890625 -410.9765625 142.6953125 C-407.15446185 144.37061646 -403.84528442 146.57220892 -400.375 148.875 C-398.86391648 149.86555305 -397.35217178 150.85509805 -395.83984375 151.84375 C-395.05206543 152.359375 -394.26428711 152.875 -393.45263672 153.40625 C-389.30538307 156.1011805 -385.1221406 158.73863511 -380.9375 161.375 C-380.16519043 161.86210449 -379.39288086 162.34920898 -378.59716797 162.85107422 C-373.73874287 165.91241801 -368.87131674 168.95922167 -364 172 C-361.25404568 158.33191436 -359.17543931 144.56513707 -357.07058716 130.78663254 C-356.42679543 126.57403869 -355.77730532 122.36233497 -355.12670898 118.15078735 C-354.90259627 116.69956886 -354.67849049 115.24834929 -354.45439148 113.79712868 C-354.28632272 112.70875957 -354.28632272 112.70875957 -354.11485863 111.59840322 C-352.60540723 101.82036098 -351.10083923 92.04158564 -349.60644531 82.26123047 C-348.59210578 75.62299223 -347.57057847 68.98590277 -346.54091358 62.35002387 C-345.99829062 58.85096154 -345.45938339 55.3514172 -344.92941284 51.85041428 C-344.34011369 47.95765008 -343.73514844 44.06740954 -343.12890625 40.17724609 C-342.95739044 39.02705994 -342.78587463 37.87687378 -342.60916138 36.6918335 C-340.90163136 25.90100908 -337.39675785 20.8127284 -329 14 C-328.36191406 13.47664063 -327.72382813 12.95328125 -327.06640625 12.4140625 C-320.36565831 7.25045718 -313.74486315 7.91053825 -305.70967102 8.25938416 C-304.15778958 8.3193558 -304.15778958 8.3193558 -302.57455701 8.380539 C-299.10844596 8.51597813 -295.64275846 8.66023639 -292.17700195 8.80444336 C-289.6915547 8.90335334 -287.2060855 9.00171317 -284.72059631 9.0995636 C-279.36760226 9.31149779 -274.0147795 9.52718481 -268.66207314 9.74622917 C-260.91104795 10.06337215 -253.1597453 10.37324776 -245.40835371 10.68128986 C-232.81574821 11.18187907 -220.2233571 11.68766161 -207.63110352 12.19702148 C-195.42772294 12.69063427 -183.22429051 13.18291431 -171.02075195 13.67260742 C-170.26985085 13.7027401 -169.51894975 13.73287278 -168.74529407 13.76391857 C-160.53849283 14.09318914 -152.33166779 14.4218607 -144.12481213 14.74977207 C-143.04111798 14.79307328 -143.04111798 14.79307328 -141.93553102 14.83724927 C-139.04632522 14.95268394 -136.15711907 15.06811 -133.26790979 15.18345744 C-124.82674905 15.52047022 -116.38566757 15.85933295 -107.9447182 16.20160092 C-102.01667388 16.44191727 -96.08854748 16.68016116 -90.16039085 16.91769218 C-87.73485073 17.0152745 -85.30934105 17.11361691 -82.88386536 17.21278763 C-79.5644038 17.34842474 -76.2448435 17.4813401 -72.92524719 17.6136322 C-71.9730803 17.6532238 -71.02091341 17.69281541 -70.03989297 17.73360676 C-67.36010035 17.83881396 -64.68084332 17.9264604 -62 18 C-60.5411018 18.04012024 -60.5411018 18.04012024 -59.05273092 18.08105099 C-58.08739639 18.09602529 -57.12206187 18.11099959 -56.12747478 18.12642765 C-55.26272052 18.14192695 -54.39796625 18.15742624 -53.5070073 18.17339522 C-48.96953991 17.8595648 -45.13331276 16.01187106 -41.0625 14.09765625 C-40.1751416 13.70049911 -39.2877832 13.30334198 -38.37353516 12.89414978 C-35.57329182 11.63593275 -32.7868121 10.3501511 -30 9.0625 C-28.10112547 8.20186486 -26.20139158 7.34312313 -24.30078125 6.48632812 C-20.14001213 4.60981849 -15.98803398 2.71518391 -11.84326172 0.80360413 C-7.4644103 -1.10543735 -4.66307341 -1.01739783 0 0 Z M-313 41 C-315.81988414 55.49729791 -317.63292227 70.10293479 -319.44135046 84.75534725 C-319.87547224 88.26515928 -320.31454738 91.77435224 -320.75296021 95.28363037 C-321.59351224 102.01822022 -322.42942788 108.75337731 -323.2636534 115.48875344 C-323.93487161 120.90685599 -324.60826194 126.32468488 -325.28308105 131.74234009 C-325.4268319 132.89643359 -325.4268319 132.89643359 -325.5734868 134.07384211 C-325.76709155 135.62814937 -325.96069714 137.18245654 -326.15430355 138.7367636 C-330.42320256 173.01528916 -334.64644789 207.29917813 -338.78137207 241.59414673 C-341.01756343 260.1386823 -343.33682064 278.66571743 -345.9296875 297.1640625 C-346.79377843 303.37947499 -347.58445911 309.60220892 -348.35717773 315.82958984 C-349.43870205 324.51371718 -350.52745385 333.19688168 -351.62573242 341.87890625 C-352.99518449 352.7073254 -354.36041798 363.53626887 -355.72251415 374.36561584 C-356.54021464 380.86516648 -357.35980223 387.36446867 -358.18334961 393.86328125 C-358.9886412 400.21868949 -359.78911779 406.57468741 -360.58626747 412.93112183 C-360.88874649 415.33622937 -361.19295196 417.74112047 -361.49895287 420.14578247 C-361.9247148 423.49376418 -362.3442973 426.84246702 -362.76245117 430.19140625 C-362.88864838 431.17222168 -363.01484558 432.15303711 -363.14486694 433.16357422 C-363.8028037 438.49083851 -364.12488812 443.63215159 -364 449 C-363.21043411 449.06628601 -362.42086823 449.13257202 -361.6073761 449.2008667 C-351.50894424 450.04891939 -341.41066496 450.89877537 -331.3125 451.75 C-330.09474947 451.85264286 -330.09474947 451.85264286 -328.85239792 451.95735931 C-308.0368413 453.71233846 -287.22389558 455.48900066 -266.41867065 457.36315918 C-251.21912505 458.73133107 -236.01261791 460.00211669 -220.80297852 461.25256348 C-207.21358043 462.37210456 -193.63607031 463.5785939 -180.0625 464.875 C-157.13403232 467.06189143 -134.17763095 468.90827998 -111.22143555 470.77539062 C-108.09293181 471.02989401 -104.96443348 471.28446373 -101.8359375 471.5390625 C-100.68612239 471.63258121 -100.68612239 471.63258121 -99.51307869 471.7279892 C-89.37385387 472.55319236 -79.23662233 473.3982657 -69.1015625 474.2734375 C-67.99031006 474.3692511 -66.87905762 474.4650647 -65.73413086 474.56378174 C-60.6944345 474.99913178 -55.65511047 475.43833829 -50.61621094 475.8828125 C-48.87695963 476.0339291 -47.13770224 476.18497563 -45.3984375 476.3359375 C-44.25841782 476.43858414 -44.25841782 476.43858414 -43.09536743 476.54330444 C-38.71441762 476.92063827 -34.39504192 477.02296536 -30 477 C-29.84752556 475.61773727 -29.84752556 475.61773727 -29.69197083 474.20755005 C-28.40167161 462.51305021 -27.10807064 450.81891698 -25.8125 439.125 C-25.70929569 438.19329861 -25.60609138 437.26159721 -25.49975967 436.30166245 C-23.04588361 414.15407218 -20.58124043 392.00957827 -17.89297485 369.88897705 C-16.38733435 357.48632472 -15.03572904 345.07322858 -13.75787354 332.6451416 C-12.4831083 320.26823643 -11.06010846 307.91431378 -9.5625 295.5625 C-7.74307766 280.55436178 -6.07192159 265.53603934 -4.5 250.5 C-2.96687662 235.83913429 -1.34211241 221.1954974 0.4375 206.5625 C2.59083468 188.85388579 4.50801411 171.12427617 6.38195801 153.38409424 C8.12884162 136.86487058 9.99157184 120.36571871 11.99935913 103.87628174 C13.93602058 87.94077706 15.55501469 71.9872403 17 56 C-2.01805342 54.27541605 -21.04337333 53.31082385 -40.11718369 52.51509356 C-44.24673238 52.34170674 -48.37603768 52.16269595 -52.50537109 51.98426819 C-59.51476015 51.68202402 -66.52426797 51.38269667 -73.53387451 51.08554077 C-90.77303011 50.35451845 -108.01152741 49.60817297 -125.25004625 48.86231112 C-127.93658287 48.74613341 -130.62312709 48.63013293 -133.30967331 48.51417732 C-161.00217088 47.31854728 -188.69050702 46.05737949 -216.375 44.6875 C-222.54032292 44.38326677 -228.70568252 44.07978212 -234.87109375 43.77734375 C-235.56898954 43.74307785 -236.26688534 43.70881195 -236.98592949 43.67350769 C-251.46696541 42.96397434 -265.95086581 42.33354871 -280.4375 41.75 C-281.44955505 41.70861908 -282.46161011 41.66723816 -283.5043335 41.62460327 C-293.34127247 41.22557418 -303.15281605 40.89195682 -313 41 Z " fill="#020202" transform="translate(449,5)"/>
<path d="M0 0 C12.04965722 0.03425916 24.07165019 0.53022393 36.10900879 1.04789734 C38.45225191 1.14652699 40.7955037 1.24495094 43.13876343 1.34318542 C49.43549214 1.60824936 55.73201774 1.87786863 62.02849579 2.14881516 C65.96653053 2.31802032 69.90461393 2.486048 73.8427124 2.65376282 C130.66543958 5.07618819 187.47425857 7.78423334 244.27478027 10.68095398 C264.18960851 11.69458466 284.10252791 12.59319318 304.03063965 13.30986023 C307.23003396 13.42585108 310.42928409 13.54534751 313.62854004 13.66508484 C314.56184647 13.697397 315.49515289 13.72970917 316.45674133 13.76300049 C334.77467724 14.45184704 334.77467724 14.45184704 336.45275879 16.12992859 C336.28542214 27.64790571 334.66740551 39.21511782 333.40588379 50.65141296 C333.08139318 53.59693782 332.7627947 56.54305544 332.44494629 59.48930359 C331.40880815 69.00946537 330.2892281 78.51024219 329.01135254 88.00102234 C327.7497239 97.42520235 326.69178987 106.86585885 325.69885254 116.32133484 C325.6247818 117.0266824 325.55071106 117.73202995 325.47439575 118.45875168 C324.94236223 123.53623143 324.41588971 128.61428269 323.89025879 133.69242859 C323.35993004 138.81298473 322.82754591 143.93331504 322.29097176 149.05322075 C322.08167082 151.05891366 321.8756038 153.06494323 321.66966248 155.07098389 C320.90240821 162.40770643 319.98803454 169.70336487 318.89926147 176.99954224 C318.1583641 182.19390079 317.65391368 187.40905987 317.14025879 192.62992859 C316.88481307 195.15347409 316.62821736 197.67690334 316.37072754 200.20024109 C316.30114838 200.88285004 316.23156921 201.56545898 316.15988159 202.26875305 C315.230676 211.35128603 314.25671156 220.42903592 313.27615356 229.50614929 C313.06467601 231.46714111 312.85416634 233.42823761 312.64474487 235.38945007 C311.55342351 245.60461428 310.38584058 255.79981759 309.01525879 265.98149109 C307.76698179 275.3067775 306.71530478 284.6483383 305.73400879 294.00492859 C305.66119186 294.69901447 305.58837494 295.39310036 305.51335144 296.10821915 C304.98917829 301.11504471 304.47041149 306.12242528 303.95275879 311.12992859 C303.36261822 316.83864185 302.77022812 322.54710799 302.17150879 328.25492859 C302.098374 328.95265066 302.02523922 329.65037273 301.94988823 330.3692379 C301.07444246 338.6872615 300.11867401 346.98700461 298.98791504 355.27445984 C297.61283832 365.37648514 296.53241373 375.50204489 295.48010254 385.64164734 C295.39496525 386.45916599 295.30982796 387.27668465 295.22211075 388.11897659 C294.42636859 395.76128263 293.63571436 403.40409981 292.85681152 411.04814148 C292.42557422 415.27692064 291.98678768 419.50485932 291.54315376 423.73235512 C291.37721249 425.32804082 291.21415214 426.92402897 291.0540905 428.52031517 C290.83203568 430.73303211 290.60040776 432.94455265 290.36657715 435.15605164 C290.23794785 436.41016342 290.10931854 437.66427521 289.97679138 438.95639038 C289.50800704 441.79534553 288.92394701 443.68940796 287.45275879 446.12992859 C278.44902821 446.35584434 269.58240293 445.6419511 260.62854004 444.80961609 C259.07195861 444.66875906 257.51533187 444.52840188 255.95866394 444.38850403 C252.6334573 444.0889104 249.30851813 443.78656039 245.98376465 443.48197937 C237.94928344 442.74634841 229.9134044 442.02623956 221.87752914 441.30602264 C220.03870109 441.14119868 218.19988739 440.9762145 216.3610878 440.8110733 C198.79327026 439.2339912 181.21842486 437.75333362 163.63921738 436.30956268 C136.08054152 434.04540922 108.53528914 431.65066656 80.99383545 429.186203 C62.82526177 427.560942 44.65523311 425.96233852 26.47619629 424.45805359 C25.66316795 424.39072021 24.85013962 424.32338684 24.01247406 424.25401306 C16.249549 423.61154208 8.48631497 422.97307676 0.72226334 422.34436035 C-17.729437 420.84816891 -36.14224854 419.12270721 -54.54724121 417.12992859 C-54.90406322 407.35950468 -53.55521217 397.87207337 -52.31677246 388.20414734 C-52.08163833 386.33415777 -51.84700434 384.46410524 -51.61283875 382.59399414 C-51.11969117 378.66563015 -50.62256209 374.73779904 -50.12219238 370.81034851 C-49.49638594 365.89821706 -48.87708371 360.98529861 -48.26056385 356.07199383 C-47.65665483 351.26158087 -47.04934475 346.45159876 -46.44177246 341.64164734 C-46.33329294 340.78096838 -46.22481342 339.92028942 -46.11304665 339.03352928 C-44.94035275 329.7482581 -43.73512022 320.46798843 -42.46806335 311.19508362 C-39.08852027 286.45191013 -35.9392976 261.68340614 -32.85163856 236.90222073 C-32.13467425 231.15107732 -31.41561931 225.40019523 -30.69685364 219.64927673 C-29.48794717 209.97436198 -28.28041056 200.29927711 -27.07385254 190.62406921 C-25.5528111 178.42711357 -24.02954957 166.23043634 -22.50553703 154.03385162 C-21.16827932 143.33172476 -19.83203896 132.6294709 -18.49597788 121.9271946 C-18.06035713 118.43799456 -17.62461801 114.94880932 -17.18886948 111.45962524 C-14.51840617 90.07342269 -11.84899348 68.68718528 -9.24525821 47.29273939 C-8.95071898 44.87282726 -8.65572334 42.45297119 -8.36059666 40.03313065 C-7.30332386 31.36481132 -7.30332386 31.36481132 -6.25723839 22.69513702 C-5.81280373 18.99231423 -5.36368186 15.29008791 -4.91369629 11.5879364 C-4.7873839 10.52022255 -4.66107151 9.4525087 -4.53093147 8.35243988 C-4.41444189 7.4007769 -4.29795231 6.44911392 -4.17793274 5.46861267 C-4.07931851 4.64714375 -3.98070429 3.82567482 -3.87910175 2.9793129 C-3.36069692 0.09035911 -2.99011766 0.15251864 0 0 Z M1.45275879 5.12992859 C-1.36712535 19.6272265 -3.18016348 34.23286338 -4.98859167 48.88527584 C-5.42271345 52.39508787 -5.86178859 55.90428083 -6.30020142 59.41355896 C-7.14075345 66.14814881 -7.97666909 72.8833059 -8.81089461 79.61868203 C-9.48211282 85.03678458 -10.15550315 90.45461347 -10.83032227 95.87226868 C-10.97407311 97.02636218 -10.97407311 97.02636218 -11.12072802 98.2037707 C-11.31433276 99.75807796 -11.50793835 101.31238513 -11.70154476 102.86669219 C-15.97044377 137.14521775 -20.1936891 171.42910672 -24.32861328 205.72407532 C-26.56480464 224.26861089 -28.88406185 242.79564602 -31.47692871 261.29399109 C-32.34101964 267.50940358 -33.13170032 273.73213751 -33.90441895 279.95951843 C-34.98594326 288.64364577 -36.07469506 297.32681027 -37.17297363 306.00883484 C-38.5424257 316.83725399 -39.90765919 327.66619746 -41.26975536 338.49554443 C-42.08745585 344.99509506 -42.90704344 351.49439726 -43.73059082 357.99320984 C-44.53588241 364.34861808 -45.336359 370.704616 -46.13350868 377.06105042 C-46.4359877 379.46615796 -46.74019317 381.87104906 -47.04619408 384.27571106 C-47.47195602 387.62369277 -47.89153851 390.97239561 -48.30969238 394.32133484 C-48.43588959 395.30215027 -48.56208679 396.2829657 -48.69210815 397.29350281 C-49.35004492 402.6207671 -49.67212933 407.76208018 -49.54724121 413.12992859 C-48.75767532 413.1962146 -47.96810944 413.26250061 -47.15461731 413.33079529 C-37.05618545 414.17884798 -26.95790617 415.02870396 -16.85974121 415.87992859 C-15.64199068 415.98257145 -15.64199068 415.98257145 -14.39963913 416.0872879 C6.41591749 417.84226705 27.22886321 419.61892925 48.03408813 421.49308777 C63.23363374 422.86125966 78.44014088 424.13204528 93.64978027 425.38249207 C107.23917836 426.50203315 120.81668848 427.70852249 134.39025879 429.00492859 C157.31872646 431.19182002 180.27512784 433.03820856 203.23132324 434.90531921 C206.35982698 435.1598226 209.48832531 435.41439232 212.61682129 435.66899109 C213.7666364 435.7625098 213.7666364 435.7625098 214.9396801 435.85791779 C225.07890492 436.68312095 235.21613646 437.52819428 245.35119629 438.40336609 C246.46244873 438.49917969 247.57370117 438.59499329 248.71862793 438.69371033 C253.75832429 439.12906037 258.79764832 439.56826688 263.83654785 440.01274109 C265.57579915 440.16385769 267.31505655 440.31490422 269.05432129 440.46586609 C270.19434097 440.56851273 270.19434097 440.56851273 271.35739136 440.67323303 C275.73834117 441.05056686 280.05771687 441.15289395 284.45275879 441.12992859 C284.60523323 439.74766586 284.60523323 439.74766586 284.76078796 438.33747864 C286.05108718 426.6429788 287.34468815 414.94884556 288.64025879 403.25492859 C288.7434631 402.3232272 288.8466674 401.3915258 288.95299911 400.43159103 C291.40687518 378.28400077 293.87151836 356.13950685 296.55978394 334.01890564 C298.06542444 321.61625331 299.41702975 309.20315717 300.69488525 296.77507019 C301.96965049 284.39816502 303.39265033 272.04424237 304.89025879 259.69242859 C306.70968113 244.68429036 308.3808372 229.66596792 309.95275879 214.62992859 C311.48588217 199.96906288 313.11064638 185.32542599 314.89025879 170.69242859 C317.04359346 152.98381437 318.9607729 135.25420476 320.8347168 117.51402283 C322.58160041 100.99479917 324.44433063 84.4956473 326.45211792 68.00621033 C328.38877937 52.07070565 330.00777348 36.11716889 331.45275879 20.12992859 C312.43470537 18.40534464 293.40938546 17.44075244 274.3355751 16.64502215 C270.20602641 16.47163533 266.07672111 16.29262454 261.9473877 16.11419678 C254.93799864 15.81195261 247.92849082 15.51262526 240.91888428 15.21546936 C223.67972868 14.48444704 206.44123138 13.73810156 189.20271254 12.99223971 C186.51617592 12.876062 183.82963169 12.76006152 181.14308548 12.64410591 C153.45058791 11.44847587 125.76225177 10.18730808 98.07775879 8.81742859 C91.91243587 8.51319536 85.74707627 8.20971071 79.58166504 7.90727234 C78.88376925 7.87300644 78.18587345 7.83874054 77.4668293 7.80343628 C62.98579338 7.09390293 48.50189298 6.4634773 34.01525879 5.87992859 C33.00320374 5.83854767 31.99114868 5.79716675 30.94842529 5.75453186 C21.11148632 5.35550277 11.29994274 5.02188541 1.45275879 5.12992859 Z " fill="#F0F0F0" transform="translate(134.5472412109375,40.87007141113281)"/>
<path d="M0 0 C0.33 0 0.66 0 1 0 C1.62865207 11.84460338 0.00322467 21.80098848 -3.375 33.125 C-3.77389851 34.53205344 -4.17103335 35.93960807 -4.56640625 37.34765625 C-4.98751503 38.81830215 -5.41076948 40.288335 -5.8359375 41.7578125 C-6.06261108 42.54226746 -6.28928467 43.32672241 -6.52282715 44.13494873 C-7.91525517 48.80326849 -9.4965076 53.32284007 -11.31054688 57.84472656 C-20.72998754 82.12040406 -22.9829818 107.54889377 -26.00826597 133.24120855 C-26.92997984 141.05640339 -27.89490011 148.86619745 -28.85888672 156.67626953 C-29.22807674 159.67149945 -29.59688763 162.6667759 -29.96548462 165.66207886 C-30.0584505 166.41743459 -30.15141639 167.17279032 -30.24719942 167.95103562 C-30.92156992 173.43605106 -31.58928854 178.9218548 -32.25448608 184.4079895 C-35.15825949 208.3388309 -38.17867144 232.2536206 -41.24751282 256.16382599 C-42.01990493 262.18176919 -42.79039343 268.19995501 -43.5604248 274.21820068 C-43.81582091 276.21399313 -44.07121744 278.20978552 -44.32661438 280.20557785 C-44.70839125 283.18909882 -45.09016589 286.17262007 -45.47193718 289.15614176 C-45.85188183 292.12517912 -46.23188792 295.09420861 -46.61193848 298.06323242 C-46.79930919 299.52702556 -46.79930919 299.52702556 -46.99046516 301.02039027 C-47.74722622 306.93042718 -48.50592434 312.84021223 -49.26587784 318.74983943 C-50.47800356 328.17595435 -51.68443032 337.60275818 -52.87919819 347.03109038 C-53.43089314 351.38309846 -53.98575179 355.73464392 -54.5489006 360.085186 C-55.06817388 364.09707116 -55.57885047 368.10995448 -56.08277559 372.12379551 C-56.26722222 373.58067052 -56.45481802 375.037151 -56.64586973 376.49317455 C-56.90567388 378.47683379 -57.15285505 380.462134 -57.39944458 382.44747925 C-57.54052202 383.55141966 -57.68159946 384.65536007 -57.82695198 385.79275322 C-58.10374783 390.92284721 -58.01288528 394.74002679 -54.7421875 398.80859375 C-53.79601562 399.67613281 -52.84984375 400.54367187 -51.875 401.4375 C-47.92823092 405.10548068 -44.32126641 408.84966282 -40.80322266 412.93188477 C-37.87578716 416.28935919 -34.80973533 419.51347103 -31.75 422.75 C-25.44403156 429.45053183 -19.18066209 436.1835531 -13 443 C-12.34902344 443.69867188 -11.69804687 444.39734375 -11.02734375 445.1171875 C-5.89166495 450.77493294 -5.89166495 450.77493294 -6 455 C-8.2 460.2 -8.2 460.2 -10 462 C-19.59444949 462.6718556 -28.9670426 461.39534863 -38.4375 460 C-41.06048075 459.6195896 -43.68428809 459.24630146 -46.30859375 458.875 C-47.45126709 458.70742188 -48.59394043 458.53984375 -49.77124023 458.3671875 C-52.88056279 458.01358288 -55.87397181 457.93378437 -59 458 C-58.6596875 459.0209375 -58.6596875 459.0209375 -58.3125 460.0625 C-57.88940151 464.03962581 -58.97256895 466.6596038 -61 470 C-63.84293917 473.39451576 -66.95854013 476.4713164 -70.125 479.5625 C-70.94226563 480.38685547 -71.75953125 481.21121094 -72.6015625 482.06054688 C-75.02492649 484.45898703 -77.40284918 486.78889953 -80 489 C-80.56771154 489.50276587 -81.13542307 490.00553173 -81.72033799 490.52353293 C-88.6591328 495.95764982 -95.11582588 495.73141596 -103.6166687 495.42564392 C-105.04026668 495.39696115 -106.46392088 495.37095786 -107.88761413 495.34747499 C-111.55231455 495.2797828 -115.21502781 495.17601105 -118.87855643 495.0624083 C-122.15238749 494.96609924 -125.42677318 494.90205605 -128.70132828 494.83563423 C-135.81579255 494.68120611 -142.92818165 494.47371065 -150.04085612 494.25377214 C-153.69557033 494.14185742 -157.35045087 494.03561343 -161.00531006 493.92855835 C-168.10981363 493.71960528 -175.2141583 493.50567546 -182.31845666 493.28986973 C-190.62039135 493.0378636 -198.92247323 492.79087332 -207.22456132 492.5439819 C-222.04094094 492.10318468 -236.85717761 491.65775612 -251.67333984 491.2097168 C-266.00656286 490.77628389 -280.33989017 490.34652659 -294.67333984 489.9206543 C-310.36104926 489.4545383 -326.0487027 488.98661751 -341.73625934 488.51538509 C-342.98187501 488.47796869 -342.98187501 488.47796869 -344.25265463 488.4397964 C-345.91970003 488.3897204 -347.58674531 488.33964057 -349.25379048 488.28955688 C-355.02539872 488.1162598 -360.79704207 487.94416441 -366.56869888 487.77249336 C-373.59876433 487.56333058 -380.62876059 487.35199058 -387.65867998 487.13797326 C-391.2372166 487.02907295 -394.81577352 486.92105558 -398.39441299 486.81558418 C-402.28526776 486.7008746 -406.17597551 486.58160331 -410.06668091 486.46192932 C-411.17913968 486.42982363 -412.29159846 486.39771793 -413.4377681 486.36463934 C-416.62638299 486.26435544 -419.81267977 486.13494954 -423 486 C-424.8504406 485.94513422 -424.8504406 485.94513422 -426.73826385 485.88916004 C-428.5982603 485.80598488 -428.5982603 485.80598488 -430.49583244 485.72112942 C-432.18282873 485.65777233 -432.18282873 485.65777233 -433.90390575 485.5931353 C-439.68239118 484.48612001 -442.79106703 480.37740803 -445.99707031 475.77514648 C-451.92270735 466.6524369 -453.17978663 459.91302637 -452 449 C-451.83396137 447.05377075 -451.67281569 445.1071201 -451.515625 443.16015625 C-451.12186765 438.35639254 -450.673636 433.56049989 -450.18359375 428.765625 C-449.73910619 422.06994003 -450.10249426 416.44460032 -451.91748047 409.96923828 C-452.22582966 408.82224473 -452.22582966 408.82224473 -452.54040813 407.65207958 C-453.22312539 405.12212734 -453.92008316 402.59633482 -454.6171875 400.0703125 C-455.10666086 398.26799265 -455.59524231 396.46543036 -456.08299255 394.66264343 C-457.39572279 389.82048219 -458.72078913 384.98177612 -460.04819107 380.14361954 C-461.43680591 375.0738873 -462.81386646 370.00101855 -464.19213867 364.9284668 C-466.68303076 355.76751237 -469.18339804 346.60917918 -471.68863392 337.45213795 C-473.92012052 329.29502446 -476.14408242 321.13588011 -478.36488724 312.97585297 C-478.92997506 310.90001193 -479.49546926 308.82428207 -480.06112671 306.74859619 C-481.67934874 300.81049697 -483.29679634 294.87219782 -484.90881538 288.93241119 C-485.79602316 285.66423314 -486.68476005 282.39647236 -487.57421875 279.12890625 C-487.74946705 278.48492638 -487.92471535 277.8409465 -488.1052742 277.17745209 C-490.45276397 268.56043775 -492.8500106 259.95858153 -495.28792858 251.36671352 C-497.09717246 244.99013125 -498.88854251 238.60869327 -500.66905689 232.22403049 C-501.73453871 228.40844555 -502.80998514 224.59637178 -503.91201782 220.79116821 C-508.7477315 204.07614238 -512.40578724 188.56418086 -511 171 C-510.67 171 -510.34 171 -510 171 C-509.86464844 171.84175781 -509.72929687 172.68351563 -509.58984375 173.55078125 C-506.57337241 190.9451639 -501.88925778 208.03604874 -496.77392578 224.92163086 C-494.92394594 231.08797697 -493.39912099 237.32336183 -491.87011719 243.57568359 C-490.58551413 248.78302086 -489.18087902 253.93011987 -487.625 259.0625 C-485.37517326 266.48981264 -483.42371444 273.98218385 -481.5 281.5 C-479.63449365 288.78746057 -477.75707008 296.0541988 -475.5625 303.25 C-472.91334493 311.94925246 -470.71741167 320.76655842 -468.47052002 329.57592773 C-466.41116419 337.64151931 -464.29179002 345.66994701 -461.86328125 353.6328125 C-459.88366914 360.20512472 -458.20211986 366.85133549 -456.5 373.5 C-454.52772079 381.20193909 -452.52389641 388.88108462 -450.25 396.5 C-450.04995361 397.17514648 -449.84990723 397.85029297 -449.64379883 398.54589844 C-448.79994747 401.37895544 -447.9347713 404.20223517 -447.02734375 407.015625 C-443.2996934 419.15216102 -445.17862836 431.53586829 -446.2878418 443.97900391 C-446.55154933 446.98456657 -446.77898133 449.9910441 -447 453 C-447.0837085 453.80888672 -447.16741699 454.61777344 -447.25366211 455.45117188 C-447.68280858 461.95108491 -445.25986339 465.80444847 -441.5625 471 C-441.04623047 471.76183594 -440.52996094 472.52367187 -439.99804688 473.30859375 C-437.70177301 476.81681975 -437.70177301 476.81681975 -435 480 C-431.99923548 480.1952941 -429.01781618 480.32600024 -426.01318359 480.41723633 C-425.05661488 480.45005361 -424.10004616 480.48287088 -423.11449051 480.51668262 C-419.87594521 480.62650577 -416.63721422 480.7292754 -413.3984375 480.83203125 C-411.07879434 480.90900555 -408.75916365 480.98635648 -406.43954468 481.0640564 C-400.08512687 481.27546534 -393.73051436 481.48038556 -387.37583923 481.68389511 C-383.37977761 481.81206813 -379.38378992 481.94247721 -375.38781738 482.07339478 C-331.90264053 483.49731729 -288.41462335 484.82907068 -244.9253931 486.12274122 C-242.76375328 486.18709058 -240.60211753 486.25157487 -238.44048309 486.31610489 C-208.82215421 487.20010773 -179.20438188 488.08057231 -149.57879639 488.68742371 C-140.75398386 488.87058295 -131.94176159 489.12516386 -123.125 489.5625 C-115.66723494 489.91415707 -108.21604111 490.16211431 -100.75 490.25 C-99.8130127 490.2713501 -98.87602539 490.2927002 -97.91064453 490.31469727 C-97.04810059 490.31912842 -96.18555664 490.32355957 -95.296875 490.328125 C-94.15750488 490.34214355 -94.15750488 490.34214355 -92.99511719 490.35644531 C-90.45928003 489.9033956 -89.67183789 488.90334149 -88 487 C-87.278125 486.5875 -86.55625 486.175 -85.8125 485.75 C-79.43686918 481.78294082 -74.3365407 476.50785377 -69.546875 470.7734375 C-68 469 -68 469 -65.5 466.9375 C-63.64030162 464.96301431 -63.64030162 464.96301431 -64.125 461.625 C-64.91972824 458.33255445 -65.83669672 455.17969563 -67 452 C-58.57697606 451.70196275 -50.62178701 452.62263879 -42.3125 453.9375 C-32.1956882 455.46873632 -22.23031145 456.68228846 -12 457 C-11.46592636 454.80186507 -11.46592636 454.80186507 -12 452 C-13.82753849 449.38327929 -16.06352326 447.19343414 -18.3125 444.9375 C-19.60860287 443.59556374 -20.90417 442.25310983 -22.19921875 440.91015625 C-22.84552246 440.24773926 -23.49182617 439.58532227 -24.15771484 438.90283203 C-26.70214613 436.27477777 -29.16378824 433.58125188 -31.625 430.875 C-34.85334247 427.34503138 -38.08225922 423.81575345 -41.32666016 420.30053711 C-42.31515797 419.22741764 -43.30053116 418.1514113 -44.28271484 417.07250977 C-47.06847777 414.02645862 -49.91753528 411.07957286 -52.87109375 408.1953125 C-53.83921997 407.22525269 -53.83921997 407.22525269 -54.8269043 406.2355957 C-56.07527709 404.98722291 -57.34292396 403.75772499 -58.63208008 402.55151367 C-60.94767102 400.20450269 -62.80628915 398.27556429 -63.31321716 394.9375 C-63.15228651 387.52610843 -62.34366479 380.23940219 -61.42578125 372.88671875 C-61.2597161 371.52315347 -61.09412866 370.15952993 -60.9289856 368.79585266 C-60.48871388 365.17423063 -60.04070011 361.55360742 -59.59083176 357.9331665 C-59.21646287 354.91264281 -58.8466827 351.89156366 -58.47672749 348.87049675 C-56.47715367 332.55194573 -54.42130315 316.2429569 -52.15325928 299.95925903 C-49.70041502 282.32150639 -47.63537158 264.63629992 -45.51977539 246.95556641 C-43.88014689 233.25827394 -42.21225705 219.56756898 -40.41772461 205.88964844 C-39.51728795 199.02303687 -38.64046907 192.15408564 -37.7890625 185.28125 C-37.68391327 184.43266418 -37.57876404 183.58407837 -37.47042847 182.70977783 C-37.25518396 180.97208961 -37.03996403 179.23439834 -36.82476807 177.4967041 C-35.16085909 164.06472773 -33.43975468 150.64746147 -31.51513672 137.24975586 C-30.49843092 130.03740442 -29.63440861 122.8229957 -28.8515625 115.58203125 C-28.6460961 113.72246444 -28.44036522 111.86292683 -28.234375 110.00341797 C-27.93165156 107.26885189 -27.63472166 104.53449911 -27.36035156 101.79693604 C-26.03883813 88.61390454 -23.21468218 76.55422147 -19 64 C-18.58814453 62.75275146 -18.17628906 61.50550293 -17.75195312 60.22045898 C-16.66471277 56.97399495 -15.5535835 53.73664216 -14.4375 50.5 C-11.19978598 40.95832988 -8.44361529 31.43460512 -6.12890625 21.6328125 C-4.39538419 14.33621831 -2.18323904 7.1721725 0 0 Z " fill="#F6F6F6" transform="translate(511,14)"/>
<path d="M0 0 C2.45728563 3.68592844 2.09555691 5.10619714 1.6875 9.4375 C1.53861328 11.13712891 1.53861328 11.13712891 1.38671875 12.87109375 C1.07995526 15.35308925 0.63444356 17.59406243 0 20 C0.74502274 19.74943848 1.49004547 19.49887695 2.25764465 19.24072266 C9.27481113 16.88164037 16.29340532 14.52687854 23.31364918 12.17697144 C26.92287781 10.96867389 30.53152853 9.75870623 34.13891602 8.54492188 C37.61944902 7.37388876 41.101424 6.20724284 44.58444786 5.04364014 C45.91385012 4.59865661 47.24272276 4.15208763 48.57105446 3.70391846 C50.429836 3.07707906 52.29067981 2.45636504 54.15161133 1.8359375 C55.21084305 1.48063965 56.27007477 1.1253418 57.36140442 0.75927734 C60 0 60 0 63 0 C63 1.32 63 2.64 63 4 C51.9047026 7.79740127 40.80732211 11.58858875 29.70637512 15.3694458 C24.73721595 17.06292179 19.77237755 18.76782372 14.8125 20.48828125 C12.97923771 21.11739456 11.14591333 21.74632698 9.3125 22.375 C8.12587769 22.7937439 8.12587769 22.7937439 6.9152832 23.22094727 C2.8119375 24.61572587 -0.6636432 25.28681415 -5 25 C-4.44210432 17.98475852 -3.81552077 10.99017804 -3 4 C-7.98052996 4.62495215 -11.97564706 6.82116236 -16.40234375 9.03515625 C-18.11628576 9.85546581 -19.83184594 10.67240112 -21.54882812 11.48632812 C-24.213796 12.75043317 -26.86589831 14.02603941 -29.49438477 15.36450195 C-45.35548329 23.39800574 -59.18634301 23.99874391 -76.71483231 23.10863113 C-80.83111718 22.91295329 -84.94970947 22.78091114 -89.06811523 22.63842773 C-99.60153 22.26170842 -110.13040336 21.7970391 -120.65990829 21.32506561 C-129.16029586 20.94664286 -137.66143421 20.58514184 -146.16245079 20.22117615 C-148.3294133 20.12833467 -150.49636607 20.03526585 -152.6633091 19.94197083 C-174.83464081 18.98786423 -197.00970417 18.16232045 -219.1875 17.375 C-225.85811625 17.13792192 -232.52870656 16.90014611 -239.19921875 16.66015625 C-239.98082996 16.63205116 -240.76244118 16.60394608 -241.56773758 16.57498932 C-257.24932541 16.00888294 -272.92614325 15.34336413 -288.59838867 14.55810547 C-293.06461046 14.33764152 -297.53116413 14.15775404 -302 14 C-302.80179688 13.9677533 -303.60359375 13.93550659 -304.4296875 13.90228271 C-306.88016759 13.81160199 -309.32967801 13.75140014 -311.78125 13.69921875 C-312.51863403 13.66874954 -313.25601807 13.63828033 -314.01574707 13.60688782 C-319.1968559 13.54289161 -322.00123952 14.77014615 -326 18 C-326.7425 18.7425 -327.485 19.485 -328.25 20.25 C-328.8275 20.8275 -329.405 21.405 -330 22 C-330.66 22 -331.32 22 -332 22 C-332.495 23.485 -332.495 23.485 -333 25 C-333.74400307 25.6986618 -333.74400307 25.6986618 -334.5030365 26.41143799 C-336.39010273 28.41397294 -336.56566346 29.71180126 -336.95141602 32.41699219 C-337.0848793 33.30932556 -337.21834259 34.20165894 -337.35585022 35.12103271 C-337.55288795 36.56932465 -337.55288795 36.56932465 -337.75390625 38.046875 C-337.90029037 39.05026917 -338.0466745 40.05366333 -338.19749451 41.08746338 C-338.6642231 44.3067479 -339.11348981 47.52820144 -339.5625 50.75 C-339.86801338 52.87386037 -340.17464211 54.99756063 -340.48242188 57.12109375 C-341.75149969 65.92284115 -342.9734744 74.73001881 -344.1328125 83.546875 C-344.74995882 88.22714577 -345.44518455 92.86012841 -346.3125 97.5 C-347.83898355 105.877791 -349.20549356 114.2809421 -350.5625 122.6875 C-350.77237549 123.98171875 -350.98225098 125.2759375 -351.19848633 126.609375 C-352.55853436 135.06091014 -353.80725821 143.52342144 -355 152 C-355.65269312 156.58548097 -356.32123142 161.16831207 -357 165.75 C-357.165 166.91015625 -357.33 168.0703125 -357.5 169.265625 C-357.665 170.3690625 -357.83 171.4725 -358 172.609375 C-358.144375 173.59905273 -358.28875 174.58873047 -358.4375 175.60839844 C-359 178 -359 178 -361 180 C-375.47151566 171.12001399 -389.81946175 162.05851892 -404.09082031 152.86035156 C-406.10297669 151.57362517 -408.12379027 150.30037352 -410.15136719 149.03808594 C-411.15071289 148.41450195 -412.15005859 147.79091797 -413.1796875 147.1484375 C-414.53296143 146.3119165 -414.53296143 146.3119165 -415.91357422 145.45849609 C-418 144 -418 144 -419 142 C-418.1706543 139.87133789 -418.1706543 139.87133789 -416.82421875 137.22265625 C-416.33163574 136.24514404 -415.83905273 135.26763184 -415.33154297 134.26049805 C-414.78900879 133.20515869 -414.24647461 132.14981934 -413.6875 131.0625 C-413.1320752 129.96784424 -412.57665039 128.87318848 -412.00439453 127.74536133 C-408.46975104 120.80118998 -404.87283087 113.89063249 -401.21801758 107.0090332 C-395.90797228 96.99186157 -390.76222987 86.88905396 -385.59521484 76.79760742 C-385.22554596 76.07687546 -384.85587708 75.35614349 -384.4750061 74.61357117 C-383.74005428 73.1802825 -383.00645859 71.74629759 -382.27426147 70.31159973 C-380.4602991 66.77260968 -378.60672706 63.26568157 -376.66503906 59.79492188 C-376.29202667 59.12144714 -375.91901428 58.44797241 -375.53469849 57.75408936 C-374.83158693 56.49086397 -374.1182977 55.23322509 -373.39279175 53.98272705 C-371.2822545 50.17638017 -370.36689461 47.34195186 -371 43 C-373.19165479 39.66947184 -377.12123627 38.20140978 -380.59765625 36.4453125 C-381.25606003 36.10699905 -381.91446381 35.76868561 -382.59281921 35.42012024 C-384.74633981 34.31568331 -386.90412681 33.21991965 -389.0625 32.125 C-390.55058839 31.36622691 -392.03854308 30.60719157 -393.52636719 29.84790039 C-396.54908806 28.30686577 -399.57390296 26.77004042 -402.60009766 25.23583984 C-406.05153192 23.48479238 -409.49509027 21.7190794 -412.93479919 19.94512939 C-415.86894099 18.43421876 -418.80988313 16.93674943 -421.75 15.4375 C-422.81871338 14.88400879 -423.88742676 14.33051758 -424.98852539 13.76025391 C-425.97715576 13.26058105 -426.96578613 12.7609082 -427.984375 12.24609375 C-428.83741211 11.80966553 -429.69044922 11.3732373 -430.56933594 10.92358398 C-433.26429806 9.89957417 -435.14172328 9.67184761 -438 10 C-440.22093925 11.85209604 -440.22093925 11.85209604 -440.52734375 14.61328125 C-439.74159408 19.65954027 -436.87442709 22.43046679 -433.5625 26.1875 C-432.26942323 27.70303284 -430.97645444 29.21865782 -429.68359375 30.734375 C-429.05050293 31.46591797 -428.41741211 32.19746094 -427.76513672 32.95117188 C-425.50352485 35.57626825 -423.3105543 38.24876887 -421.125 40.9375 C-420.43792969 41.78054687 -419.75085938 42.62359375 -419.04296875 43.4921875 C-418.36878906 44.31976563 -417.69460938 45.14734375 -417 46 C-416.23300781 46.93070313 -415.46601563 47.86140625 -414.67578125 48.8203125 C-413.93714844 49.72523437 -413.19851563 50.63015625 -412.4375 51.5625 C-411.77621094 52.36816406 -411.11492187 53.17382812 -410.43359375 54.00390625 C-409 56 -409 56 -409 58 C-410.4291687 59.18960571 -410.4291687 59.18960571 -412.45654297 60.52197266 C-413.21087616 61.02234039 -413.96520935 61.52270813 -414.74240112 62.03823853 C-415.97979538 62.84302139 -415.97979538 62.84302139 -417.2421875 63.6640625 C-418.08089386 64.21613373 -418.91960022 64.76820496 -419.78372192 65.33700562 C-421.56211625 66.50536128 -423.34277774 67.67027204 -425.12548828 68.83203125 C-427.86162437 70.6162777 -430.58946242 72.41268186 -433.31640625 74.2109375 C-435.0411857 75.34187969 -436.76643085 76.47211203 -438.4921875 77.6015625 C-439.31306854 78.14213287 -440.13394958 78.68270325 -440.97970581 79.23965454 C-441.74034332 79.73371796 -442.50098083 80.22778137 -443.28466797 80.73681641 C-443.95529266 81.17490631 -444.62591736 81.61299622 -445.31686401 82.06436157 C-447 83 -447 83 -449 83 C-449.4375 80.81762695 -449.4375 80.81762695 -449 78 C-446.683775 76.03240229 -444.56045322 74.50386641 -442 72.91796875 C-441.28972656 72.45892654 -440.57945312 71.99988434 -439.84765625 71.52693176 C-437.5753343 70.06372203 -435.28828087 68.6255943 -433 67.1875 C-431.4573009 66.20017905 -429.91561988 65.21126538 -428.375 64.22070312 C-424.59490135 61.79515885 -420.80140932 59.39199385 -417 57 C-417.87598316 52.44587253 -420.54733336 49.74414082 -423.5625 46.375 C-424.66137918 45.12086215 -425.75903158 43.86564835 -426.85546875 42.609375 C-427.39349121 41.99513672 -427.93151367 41.38089844 -428.48583984 40.74804688 C-445.36769108 21.25851852 -445.36769108 21.25851852 -445.29296875 13.0390625 C-444.83745033 9.86865433 -443.24684343 8.1807598 -441 6 C-437.76129839 4.38064919 -434.51099024 4.56253155 -431 5 C-427.88281434 6.04163791 -425.04309297 7.49862286 -422.13671875 9.0234375 C-421.30525833 9.44364166 -420.47379791 9.86384583 -419.61714172 10.29678345 C-416.96602574 11.64129536 -414.3269373 13.00772937 -411.6875 14.375 C-409.95841623 15.25534926 -408.22860306 16.13426745 -406.49804688 17.01171875 C-402.186567 19.20397253 -397.88896218 21.42182155 -393.59710693 23.65222168 C-390.95016444 25.02586235 -388.29866977 26.39044728 -385.64697266 27.75488281 C-383.93756121 28.64076621 -382.22840414 29.52714067 -380.51953125 30.4140625 C-379.73519211 30.81636078 -378.95085297 31.21865906 -378.14274597 31.63314819 C-368.3346337 36.75538878 -368.3346337 36.75538878 -365.625 41.3125 C-364.20164941 47.43290755 -366.46369817 52.62715941 -369.32421875 57.953125 C-369.66194809 58.60204712 -369.99967743 59.25096924 -370.34764099 59.91955566 C-371.45134752 62.03487936 -372.56932936 64.14229203 -373.6875 66.25 C-374.46504791 67.73416766 -375.2415653 69.21887563 -376.01708984 70.70410156 C-377.5898359 73.71297128 -379.16781603 76.71899622 -380.75048828 79.72265625 C-383.90634857 85.71573139 -387.01371809 91.73368158 -390.125 97.75 C-391.24575333 99.91033289 -392.36684946 102.07048797 -393.48828125 104.23046875 C-397.43607006 111.83784535 -401.37484551 119.44987455 -405.3125 127.0625 C-405.80934296 128.02283142 -405.80934296 128.02283142 -406.31622314 129.00256348 C-407.248729 130.80501518 -408.18101052 132.60758293 -409.11328125 134.41015625 C-409.91439331 135.95908569 -409.91439331 135.95908569 -410.73168945 137.53930664 C-411.49593093 139.02203808 -412.25400301 140.50800602 -413 142 C-412.33226562 142.22945312 -411.66453125 142.45890625 -410.9765625 142.6953125 C-407.15446185 144.37061646 -403.84528442 146.57220892 -400.375 148.875 C-398.86391648 149.86555305 -397.35217178 150.85509805 -395.83984375 151.84375 C-395.05206543 152.359375 -394.26428711 152.875 -393.45263672 153.40625 C-389.30538307 156.1011805 -385.1221406 158.73863511 -380.9375 161.375 C-380.16519043 161.86210449 -379.39288086 162.34920898 -378.59716797 162.85107422 C-373.73874287 165.91241801 -368.87131674 168.95922167 -364 172 C-361.25404568 158.33191436 -359.17543931 144.56513707 -357.07058716 130.78663254 C-356.42679543 126.57403869 -355.77730532 122.36233497 -355.12670898 118.15078735 C-354.90259627 116.69956886 -354.67849049 115.24834929 -354.45439148 113.79712868 C-354.28632272 112.70875957 -354.28632272 112.70875957 -354.11485863 111.59840322 C-352.60540723 101.82036098 -351.10083923 92.04158564 -349.60644531 82.26123047 C-348.59210578 75.62299223 -347.57057847 68.98590277 -346.54091358 62.35002387 C-345.99829062 58.85096154 -345.45938339 55.3514172 -344.92941284 51.85041428 C-344.34011369 47.95765008 -343.73514844 44.06740954 -343.12890625 40.17724609 C-342.95739044 39.02705994 -342.78587463 37.87687378 -342.60916138 36.6918335 C-340.90163136 25.90100908 -337.39675785 20.8127284 -329 14 C-328.36191406 13.47664063 -327.72382813 12.95328125 -327.06640625 12.4140625 C-320.36565831 7.25045718 -313.74486315 7.91053825 -305.70967102 8.25938416 C-304.15778958 8.3193558 -304.15778958 8.3193558 -302.57455701 8.380539 C-299.10844596 8.51597813 -295.64275846 8.66023639 -292.17700195 8.80444336 C-289.6915547 8.90335334 -287.2060855 9.00171317 -284.72059631 9.0995636 C-279.36760226 9.31149779 -274.0147795 9.52718481 -268.66207314 9.74622917 C-260.91104795 10.06337215 -253.1597453 10.37324776 -245.40835371 10.68128986 C-232.81574821 11.18187907 -220.2233571 11.68766161 -207.63110352 12.19702148 C-195.42772294 12.69063427 -183.22429051 13.18291431 -171.02075195 13.67260742 C-170.26985085 13.7027401 -169.51894975 13.73287278 -168.74529407 13.76391857 C-160.53849283 14.09318914 -152.33166779 14.4218607 -144.12481213 14.74977207 C-143.04111798 14.79307328 -143.04111798 14.79307328 -141.93553102 14.83724927 C-139.04632522 14.95268394 -136.15711907 15.06811 -133.26790979 15.18345744 C-124.82674905 15.52047022 -116.38566757 15.85933295 -107.9447182 16.20160092 C-102.01667388 16.44191727 -96.08854748 16.68016116 -90.16039085 16.91769218 C-87.73485073 17.0152745 -85.30934105 17.11361691 -82.88386536 17.21278763 C-79.5644038 17.34842474 -76.2448435 17.4813401 -72.92524719 17.6136322 C-71.9730803 17.6532238 -71.02091341 17.69281541 -70.03989297 17.73360676 C-67.36010035 17.83881396 -64.68084332 17.9264604 -62 18 C-60.5411018 18.04012024 -60.5411018 18.04012024 -59.05273092 18.08105099 C-58.08739639 18.09602529 -57.12206187 18.11099959 -56.12747478 18.12642765 C-55.26272052 18.14192695 -54.39796625 18.15742624 -53.5070073 18.17339522 C-48.96953991 17.8595648 -45.13331276 16.01187106 -41.0625 14.09765625 C-40.1751416 13.70049911 -39.2877832 13.30334198 -38.37353516 12.89414978 C-35.57329182 11.63593275 -32.7868121 10.3501511 -30 9.0625 C-28.10112547 8.20186486 -26.20139158 7.34312313 -24.30078125 6.48632812 C-20.14001213 4.60981849 -15.98803398 2.71518391 -11.84326172 0.80360413 C-7.4644103 -1.10543735 -4.66307341 -1.01739783 0 0 Z " fill="#F6F6F6" transform="translate(449,5)"/>
<path d="M0 0 C0.33 0.66 0.66 1.32 1 2 C0.34 2 -0.32 2 -1 2 C-1.2475 2.556875 -1.495 3.11375 -1.75 3.6875 C-3.21606015 6.39971127 -5.02989471 8.63587365 -7 11 C-6.85969405 7.98342209 -6.70648535 5.76158727 -4.59765625 3.48828125 C-3.11095765 2.26743934 -1.55865102 1.12753478 0 0 Z " fill="#4A4A4A" transform="translate(119,26)"/>
</svg>
