<?xml version="1.0" encoding="UTF-8"?>
<svg version="1.1" xmlns="http://www.w3.org/2000/svg" width="286" height="34">
<path d="M0 0 C2.31 0 4.62 0 7 0 C7.66 1.32 8.32 2.64 9 4 C9.33 3.67 9.66 3.34 10 3 C11.36289194 2.847747 12.73323074 2.76137 14.10333252 2.70240784 C15.42789522 2.64364802 15.42789522 2.64364802 16.77921677 2.58370113 C17.75603031 2.54649236 18.73284386 2.50928358 19.73925781 2.47094727 C20.76564991 2.42948609 21.79204201 2.38802492 22.8495369 2.34530735 C35.2784377 1.87221053 47.71227736 1.677008 60.14824343 1.49478579 C62.92139969 1.45375364 65.69452137 1.41057683 68.46764719 1.36754465 C77.45438509 1.22838871 86.44124584 1.09847433 95.42815113 0.97065783 C97.75197867 0.93747174 100.07580015 0.90389013 102.39962006 0.87017441 C143.90500027 0.26837239 185.40580104 -0.1965085 226.91633606 -0.18803024 C230.12663906 -0.18749973 233.33693849 -0.18867335 236.54724121 -0.18997192 C241.50377177 -0.19091672 246.46025033 -0.18545725 251.41676712 -0.17382431 C253.2080625 -0.16996243 254.99936156 -0.1675123 256.79066086 -0.16656876 C259.19528635 -0.16446559 261.59979401 -0.15594282 264.00439453 -0.14526367 C264.70847317 -0.14572221 265.4125518 -0.14618074 266.13796616 -0.14665318 C270.88536492 -0.11463508 270.88536492 -0.11463508 272 1 C272.09975844 2.77118286 272.1308067 4.54632365 272.1328125 6.3203125 C272.13410156 7.4134375 272.13539063 8.5065625 272.13671875 9.6328125 C272.13285156 10.78523437 272.12898438 11.93765625 272.125 13.125 C272.12886719 14.25421875 272.13273437 15.3834375 272.13671875 16.546875 C272.12333036 27.98056182 272.12333036 27.98056182 271 33 C268.46310493 34.26844753 266.70856369 34.1258553 263.86758423 34.12698364 C262.77584396 34.12980756 261.6841037 34.13263147 260.5592804 34.13554096 C258.74837166 34.13249848 258.74837166 34.13249848 256.90087891 34.12939453 C255.62849869 34.13111003 254.35611847 34.13282553 253.04518127 34.13459301 C249.51651749 34.13910204 245.98788185 34.13721373 242.45921755 34.13416123 C239.45933208 34.13234902 236.45945346 34.13418155 233.45956838 34.13606292 C223.69301478 34.14214181 213.9264849 34.13620274 204.159935 34.12725878 C201.63496411 34.12500888 199.10999316 34.12303631 196.58502197 34.12115097 C176.24565978 34.10575801 155.90635381 34.07538328 135.56703568 34.03044605 C127.7178286 34.01319079 119.86863036 33.99738246 112.01940918 33.98822021 C96.3453144 33.96973832 80.67165552 33.93043605 64.9977417 33.84539795 C60.337911 33.82096095 55.67826432 33.80807098 51.01837158 33.80499268 C45.60676722 33.80084919 40.19581232 33.77338889 34.78441238 33.72669411 C32.82928841 33.71375856 30.87408763 33.70923027 28.91892624 33.71381187 C26.28502868 33.71865092 23.65317565 33.69310588 21.01953125 33.65942383 C19.87454635 33.67236323 19.87454635 33.67236323 18.70643044 33.68556404 C14.95570019 33.60364804 13.34535729 33.33696614 10.61669922 30.67460632 C8.66381865 27.44383423 6.90041761 24.17175931 5.3125 20.75 C5.0036084 20.08830811 4.6947168 19.42661621 4.37646484 18.74487305 C2.13796673 13.75125342 1.18047554 9.50450385 1 4 C0.69591645 2.65969329 0.36980877 1.32368061 0 0 Z " fill="#010101" transform="translate(0,0)"/>
<path d="M0 0 C2.31 0 4.62 0 7 0 C7.66 1.32 8.32 2.64 9 4 C9.33 3.67 9.66 3.34 10 3 C11.36289194 2.847747 12.73323074 2.76137 14.10333252 2.70240784 C15.42789522 2.64364802 15.42789522 2.64364802 16.77921677 2.58370113 C17.75603031 2.54649236 18.73284386 2.50928358 19.73925781 2.47094727 C20.76564991 2.42948609 21.79204201 2.38802492 22.8495369 2.34530735 C35.2784377 1.87221053 47.71227736 1.677008 60.14824343 1.49478579 C62.92139969 1.45375364 65.69452137 1.41057683 68.46764719 1.36754465 C77.45438509 1.22838871 86.44124584 1.09847433 95.42815113 0.97065783 C97.75197867 0.93747174 100.07580015 0.90389013 102.39962006 0.87017441 C143.90500027 0.26837239 185.40580104 -0.1965085 226.91633606 -0.18803024 C230.12663906 -0.18749973 233.33693849 -0.18867335 236.54724121 -0.18997192 C241.50377177 -0.19091672 246.46025033 -0.18545725 251.41676712 -0.17382431 C253.2080625 -0.16996243 254.99936156 -0.1675123 256.79066086 -0.16656876 C259.19528635 -0.16446559 261.59979401 -0.15594282 264.00439453 -0.14526367 C264.70847317 -0.14572221 265.4125518 -0.14618074 266.13796616 -0.14665318 C270.88536492 -0.11463508 270.88536492 -0.11463508 272 1 C272.09975844 2.77118286 272.1308067 4.54632365 272.1328125 6.3203125 C272.13410156 7.4134375 272.13539063 8.5065625 272.13671875 9.6328125 C272.13285156 10.78523437 272.12898438 11.93765625 272.125 13.125 C272.12886719 14.25421875 272.13273437 15.3834375 272.13671875 16.546875 C272.12333036 27.98056182 272.12333036 27.98056182 271 33 C268.46310493 34.26844753 266.70856369 34.1258553 263.86758423 34.12698364 C262.77584396 34.12980756 261.6841037 34.13263147 260.5592804 34.13554096 C258.74837166 34.13249848 258.74837166 34.13249848 256.90087891 34.12939453 C255.62849869 34.13111003 254.35611847 34.13282553 253.04518127 34.13459301 C249.51651749 34.13910204 245.98788185 34.13721373 242.45921755 34.13416123 C239.45933208 34.13234902 236.45945346 34.13418155 233.45956838 34.13606292 C223.69301478 34.14214181 213.9264849 34.13620274 204.159935 34.12725878 C201.63496411 34.12500888 199.10999316 34.12303631 196.58502197 34.12115097 C176.24565978 34.10575801 155.90635381 34.07538328 135.56703568 34.03044605 C127.7178286 34.01319079 119.86863036 33.99738246 112.01940918 33.98822021 C96.3453144 33.96973832 80.67165552 33.93043605 64.9977417 33.84539795 C60.337911 33.82096095 55.67826432 33.80807098 51.01837158 33.80499268 C45.60676722 33.80084919 40.19581232 33.77338889 34.78441238 33.72669411 C32.82928841 33.71375856 30.87408763 33.70923027 28.91892624 33.71381187 C26.28502868 33.71865092 23.65317565 33.69310588 21.01953125 33.65942383 C19.87454635 33.67236323 19.87454635 33.67236323 18.70643044 33.68556404 C14.95570019 33.60364804 13.34535729 33.33696614 10.61669922 30.67460632 C8.66381865 27.44383423 6.90041761 24.17175931 5.3125 20.75 C5.0036084 20.08830811 4.6947168 19.42661621 4.37646484 18.74487305 C2.13796673 13.75125342 1.18047554 9.50450385 1 4 C0.69591645 2.65969329 0.36980877 1.32368061 0 0 Z M138.60132027 6.83422244 C133.05212045 6.91551998 127.50288314 6.99370875 121.95361328 7.07006836 C86.96506548 7.55161654 51.98011502 8.06803446 17 9 C16.979375 10.299375 16.95875 11.59875 16.9375 12.9375 C16.92589844 13.66839844 16.91429688 14.39929688 16.90234375 15.15234375 C17.03870167 19.12854083 17.52259448 23.05212007 18 27 C41.64082736 27.13234807 65.28166459 27.26279353 88.92251396 27.39115143 C99.90668088 27.45083131 110.89084411 27.51107481 121.875 27.57275391 C134.58071976 27.64402116 147.28644698 27.71378057 159.9921875 27.78125 C161.02365623 27.78672726 162.05512495 27.79220451 163.1178503 27.79784775 C197.07899492 27.97715201 231.0383781 28.06462384 265 28 C264.67 20.74 264.34 13.48 264 6 C222.19134351 5.866505 180.40493809 6.22001592 138.60132027 6.83422244 Z " fill="#181818" transform="translate(0,0)"/>
<path d="M0 0 C0.02886751 4.14581887 0.04675327 8.29161216 0.0625 12.4375 C0.07087891 13.62150391 0.07925781 14.80550781 0.08789062 16.02539062 C0.09111328 17.15009766 0.09433594 18.27480469 0.09765625 19.43359375 C0.10289307 20.47572021 0.10812988 21.51784668 0.11352539 22.59155273 C0 25 0 25 -1 26 C-3.33963185 26.09656528 -5.64915436 26.12545605 -7.98925781 26.11303711 C-8.75033089 26.11284388 -9.51140396 26.11265064 -10.29553986 26.11245155 C-12.93143647 26.11010259 -15.56724765 26.10003071 -18.203125 26.08984375 C-20.14097035 26.08576281 -22.07881627 26.08194273 -24.0166626 26.07835388 C-31.01115535 26.06224463 -38.00556374 26.031903 -45 26 C-46.01180014 25.99545917 -46.01180014 25.99545917 -47.04404068 25.99082661 C-67.94119056 25.89697405 -88.83815224 25.77684853 -109.73508883 25.64417708 C-110.59240209 25.63873487 -111.44971536 25.63329267 -112.33300781 25.62768555 C-113.19159126 25.62223233 -114.0501747 25.61677911 -114.93477583 25.61116064 C-121.00500826 25.57285508 -127.07525235 25.53713208 -133.14550781 25.50268555 C-171.77125214 25.28291666 -210.38495987 25.01123634 -249 24 C-250.44070476 18.82707582 -251.23774092 14.41156402 -251.125 9 C-251.10695312 7.865625 -251.08890625 6.73125 -251.0703125 5.5625 C-251.03550781 4.2940625 -251.03550781 4.2940625 -251 3 C-227.65947758 2.59210615 -204.31894462 2.18483226 -180.97827148 1.78564453 C-180.31334116 1.77427239 -179.64841083 1.76290026 -178.9633311 1.75118351 C-171.62893503 1.62577716 -164.29453371 1.50068087 -156.96012878 1.37579346 C-140.55004989 1.09622116 -140.55004989 1.09622116 -124.14013672 0.80712891 C-82.75592733 0.06602097 -41.38961991 -0.12803068 0 0 Z M-127.39867973 2.83422244 C-132.94787955 2.91551998 -138.49711686 2.99370875 -144.04638672 3.07006836 C-179.03493452 3.55161654 -214.01988498 4.06803446 -249 5 C-249.020625 6.299375 -249.04125 7.59875 -249.0625 8.9375 C-249.07410156 9.66839844 -249.08570313 10.39929688 -249.09765625 11.15234375 C-248.96129833 15.12854083 -248.47740552 19.05212007 -248 23 C-224.35917264 23.13234807 -200.71833541 23.26279353 -177.07748604 23.39115143 C-166.09331912 23.45083131 -155.10915589 23.51107481 -144.125 23.57275391 C-131.41928024 23.64402116 -118.71355302 23.71378057 -106.0078125 23.78125 C-104.97634377 23.78672726 -103.94487505 23.79220451 -102.8821497 23.79784775 C-68.92100508 23.97715201 -34.9616219 24.06462384 -1 24 C-1.33 16.74 -1.66 9.48 -2 2 C-43.80865649 1.866505 -85.59506191 2.22001592 -127.39867973 2.83422244 Z " fill="#B0B0B0" transform="translate(266,4)"/>
<path d="M0 0 C2.31 0 4.62 0 7 0 C7.66 1.32 8.32 2.64 9 4 C9.33 3.67 9.66 3.34 10 3 C11.36289194 2.847747 12.73323074 2.76137 14.10333252 2.70240784 C15.42789522 2.64364802 15.42789522 2.64364802 16.77921677 2.58370113 C17.75603031 2.54649236 18.73284386 2.50928358 19.73925781 2.47094727 C20.76564991 2.42948609 21.79204201 2.38802492 22.8495369 2.34530735 C35.2784377 1.87221053 47.71227736 1.677008 60.14824343 1.49478579 C62.92139969 1.45375364 65.69452137 1.41057683 68.46764719 1.36754465 C77.45438509 1.22838871 86.44124584 1.09847433 95.42815113 0.97065783 C97.75197867 0.93747174 100.07580015 0.90389013 102.39962006 0.87017441 C143.90500027 0.26837239 185.40580104 -0.1965085 226.91633606 -0.18803024 C230.12663906 -0.18749973 233.33693849 -0.18867335 236.54724121 -0.18997192 C241.50377177 -0.19091672 246.46025033 -0.18545725 251.41676712 -0.17382431 C253.2080625 -0.16996243 254.99936156 -0.1675123 256.79066086 -0.16656876 C259.19528635 -0.16446559 261.59979401 -0.15594282 264.00439453 -0.14526367 C264.70847317 -0.14572221 265.4125518 -0.14618074 266.13796616 -0.14665318 C270.88536492 -0.11463508 270.88536492 -0.11463508 272 1 C272.09975844 2.77118286 272.1308067 4.54632365 272.1328125 6.3203125 C272.13410156 7.4134375 272.13539063 8.5065625 272.13671875 9.6328125 C272.13285156 10.78523437 272.12898438 11.93765625 272.125 13.125 C272.12886719 14.25421875 272.13273437 15.3834375 272.13671875 16.546875 C272.12333036 27.98056182 272.12333036 27.98056182 271 33 C268.46310493 34.26844753 266.70856369 34.1258553 263.86758423 34.12698364 C262.77584396 34.12980756 261.6841037 34.13263147 260.5592804 34.13554096 C258.74837166 34.13249848 258.74837166 34.13249848 256.90087891 34.12939453 C255.62849869 34.13111003 254.35611847 34.13282553 253.04518127 34.13459301 C249.51651749 34.13910204 245.98788185 34.13721373 242.45921755 34.13416123 C239.45933208 34.13234902 236.45945346 34.13418155 233.45956838 34.13606292 C223.69301478 34.14214181 213.9264849 34.13620274 204.159935 34.12725878 C201.63496411 34.12500888 199.10999316 34.12303631 196.58502197 34.12115097 C176.24565978 34.10575801 155.90635381 34.07538328 135.56703568 34.03044605 C127.7178286 34.01319079 119.86863036 33.99738246 112.01940918 33.98822021 C96.3453144 33.96973832 80.67165552 33.93043605 64.9977417 33.84539795 C60.337911 33.82096095 55.67826432 33.80807098 51.01837158 33.80499268 C45.60676722 33.80084919 40.19581232 33.77338889 34.78441238 33.72669411 C32.82928841 33.71375856 30.87408763 33.70923027 28.91892624 33.71381187 C26.28502868 33.71865092 23.65317565 33.69310588 21.01953125 33.65942383 C19.87454635 33.67236323 19.87454635 33.67236323 18.70643044 33.68556404 C14.95570019 33.60364804 13.34535729 33.33696614 10.61669922 30.67460632 C8.66381865 27.44383423 6.90041761 24.17175931 5.3125 20.75 C5.0036084 20.08830811 4.6947168 19.42661621 4.37646484 18.74487305 C2.13796673 13.75125342 1.18047554 9.50450385 1 4 C0.69591645 2.65969329 0.36980877 1.32368061 0 0 Z M2 1 C1.57198 8.77284323 3.95147489 14.75886282 7.375 21.5625 C7.77452881 22.36026855 8.17405762 23.15803711 8.58569336 23.97998047 C10.98651955 28.64968764 10.98651955 28.64968764 15 32 C17.05001764 32.29778433 17.05001764 32.29778433 19.33316231 32.24888897 C20.66837069 32.25578716 20.66837069 32.25578716 22.03055298 32.26282471 C23.00943321 32.25768115 23.98831343 32.25253759 24.99685669 32.24723816 C26.0359367 32.24965257 27.07501671 32.25206699 28.14558399 32.25455457 C31.64415675 32.26021205 35.14254858 32.25151297 38.64111328 32.24291992 C41.14236501 32.24399228 43.64361649 32.24593027 46.14486694 32.24867249 C52.24290252 32.25302579 58.34086668 32.24806863 64.43889154 32.23882218 C71.53443838 32.22844893 78.62997344 32.22850808 85.72552644 32.22899476 C98.38099393 32.22949557 111.03643616 32.2203281 123.69189453 32.20581055 C135.98421692 32.19171677 148.27651708 32.18464001 160.56884766 32.18530273 C161.70486261 32.18536267 161.70486261 32.18536267 162.86382736 32.18542381 C163.99784114 32.18548435 163.99784114 32.18548435 165.15476429 32.1855461 C179.13388964 32.18623515 193.1130055 32.1803512 207.09212778 32.17139288 C212.04348593 32.16837123 216.99484235 32.1673127 221.94620132 32.16686058 C228.60274519 32.166109 235.25926854 32.1597845 241.91580582 32.14969444 C244.36647396 32.14676124 246.81714481 32.14554572 249.26781464 32.14612198 C252.59760542 32.14660887 255.92732911 32.14099472 259.2571106 32.13371277 C260.7321231 32.13603567 260.7321231 32.13603567 262.23693383 32.1384055 C263.12185726 32.13518106 264.00678068 32.13195661 264.91851997 32.12863445 C265.68810575 32.12793003 266.45769152 32.1272256 267.25059807 32.12649983 C269.02838115 32.18970797 269.02838115 32.18970797 270 31 C270.10003289 28.86646826 270.13081048 26.72962458 270.1328125 24.59375 C270.13474609 22.64275391 270.13474609 22.64275391 270.13671875 20.65234375 C270.13462402 19.97155762 270.1325293 19.29077148 270.13037109 18.58935547 C270.1250224 16.50871485 270.1303168 14.42829011 270.13671875 12.34765625 C270.13542969 11.04699219 270.13414062 9.74632812 270.1328125 8.40625 C270.13168457 7.20291016 270.13055664 5.99957031 270.12939453 4.75976562 C270.31455977 2.09015518 270.31455977 2.09015518 269 1 C266.91856047 0.8977208 264.83346228 0.87065236 262.74951172 0.86938477 C261.72538115 0.86758996 261.72538115 0.86758996 260.68056107 0.8657589 C258.30522741 0.86414132 255.93000829 0.87115207 253.5546875 0.87890625 C252.70353237 0.8802463 251.85237724 0.88158634 250.97542953 0.882967 C221.51508687 0.9335292 192.05504252 1.42512351 162.59799361 1.83422148 C154.38664346 1.94812232 146.17524457 2.05829885 137.96384287 2.16840816 C95.97517962 2.73212794 53.98739234 3.34874346 12 4 C11.34 6.31 10.68 8.62 10 11 C6.55783328 8.3401439 6.00495326 5.09711714 5 1 C4.01 1 3.02 1 2 1 Z " fill="#F0F0F0" transform="translate(0,0)"/>
<path d="M0 0 C0.82186861 -0.00270464 1.64373722 -0.00540928 2.49051094 -0.00819588 C4.69285798 -0.01421614 6.89506341 -0.01343606 9.09741211 -0.00952148 C10.86392372 -0.00842628 10.86392372 -0.00842628 12.66612244 -0.00730896 C15.22265625 0.12109375 15.22265625 0.12109375 16.22265625 1.12109375 C16.32268914 3.25462549 16.35346673 5.39146917 16.35546875 7.52734375 C16.35675781 8.82800781 16.35804688 10.12867188 16.359375 11.46875 C16.35728027 12.14953613 16.35518555 12.83032227 16.35302734 13.53173828 C16.34767865 15.6123789 16.35297305 17.69280364 16.359375 19.7734375 C16.35744141 21.72443359 16.35744141 21.72443359 16.35546875 23.71484375 C16.35434082 24.91818359 16.35321289 26.12152344 16.35205078 27.36132812 C16.22265625 30.12109375 16.22265625 30.12109375 15.22265625 31.12109375 C13.00410361 31.20892917 10.78277129 31.22803984 8.5625 31.21875 C7.5658004 31.21662758 7.5658004 31.21662758 6.54896545 31.21446228 C4.41931726 31.20884893 2.28977286 31.19629429 0.16015625 31.18359375 C-1.28059744 31.17858046 -2.72135278 31.17401726 -4.16210938 31.16992188 C-7.70055477 31.1588752 -11.23893914 31.14160167 -14.77734375 31.12109375 C-14.44734375 30.46109375 -14.11734375 29.80109375 -13.77734375 29.12109375 C-1.40234375 28.62609375 -1.40234375 28.62609375 11.22265625 28.12109375 C11.55265625 19.87109375 11.88265625 11.62109375 12.22265625 3.12109375 C8.46826172 3.18167969 4.71386719 3.24226562 0.84570312 3.3046875 C-11.85839532 3.50893306 -24.56257839 3.7074653 -37.26680756 3.90339661 C-44.93491553 4.02178688 -52.60298837 4.14187436 -60.27099609 4.26660156 C-102.44360427 4.95136611 -144.59898507 5.26675219 -186.77734375 5.12109375 C-181.58860064 -0.06764936 -168.44430248 1.90330796 -161.52905273 1.82397461 C-160.10495502 1.80449225 -158.68086247 1.7846298 -157.2567749 1.76441956 C-153.40148471 1.71084909 -149.54614402 1.66277288 -145.690768 1.61584163 C-141.60818423 1.56533711 -137.52566271 1.51019032 -133.44313049 1.45570374 C-126.55595495 1.36448624 -119.66874205 1.27673146 -112.78149414 1.19116211 C-105.79251565 1.10430262 -98.80358852 1.01427292 -91.81469727 0.9206543 C-26.14433581 0.04149885 -26.14433581 0.04149885 0 0 Z " fill="#161616" transform="translate(253.77734375,0.87890625)"/>
<path d="M0 0 C1.90391762 -0.00021904 1.90391762 -0.00021904 3.84629822 -0.0004425 C7.30021501 -0.0007275 10.75409654 0.0051209 14.20800519 0.01213145 C17.82746527 0.01841474 21.4469263 0.01897271 25.06639099 0.02015686 C31.90846388 0.02325558 38.75052064 0.03144916 45.59258646 0.04150635 C53.38708236 0.05271298 61.18157905 0.05818937 68.97608101 0.06320179 C84.998956 0.0736331 101.0218148 0.09120409 117.04467773 0.11352539 C117.04467773 0.44352539 117.04467773 0.77352539 117.04467773 1.11352539 C108.95085885 1.97974945 100.91940412 2.31503698 92.78295898 2.42993164 C90.86689598 2.46117126 90.86689598 2.46117126 88.91212463 2.49304199 C85.4464476 2.54868759 81.98070963 2.59822469 78.51491547 2.64595413 C76.34913693 2.67613745 74.18338799 2.70796463 72.01763916 2.74020386 C40.02679877 3.21228792 8.03825449 3.22195236 -23.95532227 3.11352539 C-18.918053 -1.92374387 -6.73066758 -0.02045117 0 0 Z " fill="#0A0A0A" transform="translate(90.955322265625,2.886474609375)"/>
<path d="M0 0 C0 6.93 0 13.86 0 21 C-0.33 21 -0.66 21 -1 21 C-1 14.4 -1 7.8 -1 1 C-2.56733887 1.03029297 -4.13467773 1.06058594 -5.74951172 1.09179688 C-91.29095795 2.7263599 -91.29095795 2.7263599 -134 1 C-134 0.67 -134 0.34 -134 0 C-40.92486313 -1.56116644 -40.92486313 -1.56116644 0 0 Z " fill="#8C8C8C" transform="translate(265,5)"/>
<path d="M0 0 C0.99 0.33 1.98 0.66 3 1 C3 2.32 3 3.64 3 5 C3.63055842 11.96616917 7.03959493 17.59943394 10.28515625 23.65625 C12 27 12 27 12 29 C12.99 29.33 13.98 29.66 15 30 C15 30.66 15 31.32 15 32 C10.46355481 30.53531814 8.92954386 26.98631204 6.875 23 C6.52171631 22.32662598 6.16843262 21.65325195 5.80444336 20.95947266 C3.15998789 15.73294567 1.68840319 10.82495009 1 5 C0.67797504 3.3311115 0.34735493 1.6638009 0 0 Z " fill="#F6F6F6" transform="translate(0,1)"/>
<path d="M0 0 C2.31 0 4.62 0 7 0 C7.66 1.98 8.32 3.96 9 6 C9.66 6 10.32 6 11 6 C11 7.98 11 9.96 11 12 C7.64888166 9.76592111 6.18446044 8.73784176 5.1875 4.75 C5.0946875 3.38875 5.0946875 3.38875 5 2 C3.35 1.67 1.7 1.34 0 1 C0 0.67 0 0.34 0 0 Z " fill="#DEDEDE" transform="translate(0,0)"/>
</svg>
